<svg width="16" height="17" viewBox="0 0 16 17" fill="none" xmlns="http://www.w3.org/2000/svg">
<path fill-rule="evenodd" clip-rule="evenodd" d="M0.222656 12.4843C0.222656 14.5611 1.90625 16.2447 3.98307 16.2447L11.8997 16.2447C13.9766 16.2447 15.6602 14.5611 15.6602 12.4843L15.6602 9.31761C15.6602 7.24079 13.9766 5.55719 11.8997 5.55719L11.5039 5.55719C11.176 5.55719 10.9102 5.82302 10.9102 6.15094C10.9102 6.47886 11.176 6.74469 11.5039 6.74469L11.8997 6.74469C13.3207 6.74469 14.4727 7.89662 14.4727 9.31761L14.4727 12.4843C14.4727 13.9053 13.3207 15.0572 11.8997 15.0572L3.98307 15.0572C2.56209 15.0572 1.41016 13.9053 1.41016 12.4843L1.41016 9.31761C1.41016 7.89662 2.56209 6.74469 3.98307 6.74469L4.37891 6.74469C4.70683 6.74469 4.97266 6.47886 4.97266 6.15094C4.97266 5.82302 4.70683 5.55719 4.37891 5.55719L3.98307 5.55719C1.90625 5.55719 0.222656 7.24079 0.222656 9.31761L0.222656 12.4843ZM5.14656 8.94588C4.91469 8.71401 4.91469 8.33807 5.14656 8.10619C5.37844 7.87432 5.75438 7.87432 5.98625 8.10619L7.34766 9.4676L7.34766 1.40104C7.34766 1.07312 7.61349 0.807289 7.94141 0.807289C8.26933 0.807289 8.53516 1.07312 8.53516 1.40104L8.53516 9.4676L9.89656 8.10619C10.1284 7.87432 10.5044 7.87432 10.7363 8.10619C10.9681 8.33807 10.9681 8.71401 10.7363 8.94588L8.36125 11.3209C8.12938 11.5528 7.75344 11.5528 7.52156 11.3209L5.14656 8.94588Z" fill="#5142FC"/>
</svg>
