<svg width="16" height="16" viewBox="0 0 16 16" fill="none" xmlns="http://www.w3.org/2000/svg">
<path fill-rule="evenodd" clip-rule="evenodd" d="M0.217285 12.0423C0.217285 14.0603 1.85317 15.6962 3.87113 15.6962L11.5634 15.6962C13.5814 15.6962 15.2173 14.0603 15.2173 12.0423L15.2173 8.9654C15.2173 6.94743 13.5814 5.31155 11.5634 5.31155L11.1788 5.31155C10.8602 5.31155 10.6019 5.56985 10.6019 5.88848C10.6019 6.2071 10.8602 6.4654 11.1788 6.4654L11.5634 6.4654C12.9442 6.4654 14.0634 7.58469 14.0634 8.9654L14.0634 12.0423C14.0634 13.423 12.9442 14.5423 11.5634 14.5423L3.87113 14.5423C2.49042 14.5423 1.37113 13.423 1.37113 12.0423L1.37113 8.9654C1.37113 7.58469 2.49042 6.4654 3.87113 6.4654L4.25575 6.4654C4.57437 6.4654 4.83267 6.2071 4.83267 5.88848C4.83267 5.56985 4.57437 5.31155 4.25575 5.31155L3.87113 5.31155C1.85317 5.31155 0.217285 6.94744 0.217285 8.9654L0.217285 12.0423ZM5.00184 3.17274C4.77654 3.39804 4.77654 3.76333 5.00184 3.98864C5.22714 4.21394 5.59243 4.21394 5.81773 3.98864L7.14056 2.66581L7.14055 10.5038C7.14055 10.8224 7.39885 11.0807 7.71748 11.0807C8.0361 11.0807 8.2944 10.8224 8.2944 10.5038L8.2944 2.66581L9.61722 3.98864C9.84253 4.21394 10.2078 4.21394 10.4331 3.98864C10.6584 3.76333 10.6584 3.39804 10.4331 3.17274L8.12542 0.865051C7.90012 0.639749 7.53483 0.639749 7.30953 0.865051L5.00184 3.17274Z" fill="#5142FC"/>
</svg>
