<svg width="18" height="18" viewBox="0 0 18 18" fill="none" xmlns="http://www.w3.org/2000/svg">
<path d="M1.922 5.15747L2.2641 5.65039L1.922 5.15747ZM7.03299 1.61034L6.69089 1.11742V1.11742L7.03299 1.61034ZM10.967 1.61034L11.3091 1.11742V1.11742L10.967 1.61034ZM16.078 5.15747L15.7359 5.65039L16.078 5.15747ZM1.65575 8.39578L1.24153 8.82985H1.24153L1.65575 8.39578ZM16.3443 8.39578L15.93 7.96171V7.96171L16.3443 8.39578ZM7.4 13.1999C7.06863 13.1999 6.8 13.4686 6.8 13.7999C6.8 14.1313 7.06863 14.3999 7.4 14.3999V13.1999ZM10.6 14.3999C10.9314 14.3999 11.2 14.1313 11.2 13.7999C11.2 13.4686 10.9314 13.1999 10.6 13.1999V14.3999ZM12.3443 16.3999H5.65572V17.5999H12.3443V16.3999ZM2.2641 5.65039L7.37509 2.10326L6.69089 1.11742L1.57991 4.66455L2.2641 5.65039ZM10.6249 2.10326L15.7359 5.65039L16.4201 4.66455L11.3091 1.11742L10.6249 2.10326ZM15.0886 9.90638V13.8086H16.2886V9.90638H15.0886ZM2.91144 13.8086V9.90638H1.71144V13.8086H2.91144ZM2.91144 9.90638C2.91144 9.17136 2.60521 8.47247 2.06998 7.96171L1.24153 8.82985C1.54595 9.12036 1.71144 9.50822 1.71144 9.90638H2.91144ZM15.93 7.96171C15.3948 8.47247 15.0886 9.17136 15.0886 9.90638H16.2886C16.2886 9.50822 16.4541 9.12036 16.7585 8.82985L15.93 7.96171ZM7.37509 2.10326C8.34204 1.43217 9.65796 1.43217 10.6249 2.10326L11.3091 1.11742C9.93072 0.16078 8.06929 0.160779 6.69089 1.11742L7.37509 2.10326ZM5.65572 16.3999C4.11333 16.3999 2.91144 15.2136 2.91144 13.8086H1.71144C1.71144 15.9286 3.50412 17.5999 5.65572 17.5999V16.3999ZM12.3443 17.5999C14.4959 17.5999 16.2886 15.9286 16.2886 13.8086H15.0886C15.0886 15.2136 13.8867 16.3999 12.3443 16.3999V17.5999ZM15.7359 5.65039C16.541 6.20913 16.624 7.29949 15.93 7.96171L16.7585 8.82985C18.0099 7.63561 17.84 5.65003 16.4201 4.66455L15.7359 5.65039ZM1.57991 4.66455C0.159964 5.65003 -0.00993717 7.63561 1.24153 8.82985L2.06998 7.96171C1.37603 7.29949 1.45903 6.20913 2.2641 5.65039L1.57991 4.66455ZM7.4 14.3999H10.6V13.1999H7.4V14.3999Z" fill="#5142FC"/>
</svg>
