<svg width="20" height="20" viewBox="0 0 20 20" fill="none" xmlns="http://www.w3.org/2000/svg">
<path d="M3.36725 11.6529L2.86475 11.2259H2.86475L3.36725 11.6529ZM4.14027 9.85801L3.48509 9.78379L4.14027 9.85801ZM15.8599 9.85801L16.5151 9.7838V9.78379L15.8599 9.85801ZM16.633 11.6529L17.1355 11.2259L16.633 11.6529ZM15.5567 7.18143L14.9016 7.25565V7.25565L15.5567 7.18143ZM4.44347 7.18143L5.09866 7.25565L4.44347 7.18143ZM13.255 16.3855C13.3828 16.0445 13.21 15.6645 12.869 15.5367C12.528 15.4089 12.148 15.5817 12.0202 15.9227L13.255 16.3855ZM7.98005 15.9227C7.85225 15.5817 7.47222 15.4089 7.13122 15.5367C6.79022 15.6645 6.61738 16.0445 6.74518 16.3855L7.98005 15.9227ZM15.4244 13.7364H4.57579V15.0552H15.4244V13.7364ZM14.9016 7.25565L15.2048 9.93223L16.5151 9.78379L16.2119 7.10721L14.9016 7.25565ZM4.79545 9.93223L5.09866 7.25565L3.78829 7.10721L3.48509 9.78379L4.79545 9.93223ZM3.86975 12.0798C4.38377 11.4748 4.70556 10.7257 4.79545 9.93223L3.48509 9.78379C3.42429 10.3204 3.20699 10.8231 2.86475 11.2259L3.86975 12.0798ZM15.2048 9.93223C15.2947 10.7257 15.6165 11.4748 16.1305 12.0798L17.1355 11.2259C16.7932 10.8231 16.5759 10.3204 16.5151 9.7838L15.2048 9.93223ZM4.57579 13.7364C3.79615 13.7364 3.30023 12.7501 3.86975 12.0798L2.86475 11.2259C1.61721 12.6943 2.59604 15.0552 4.57579 15.0552V13.7364ZM15.4244 15.0552C17.4042 15.0552 18.383 12.6943 17.1355 11.2259L16.1305 12.0798C16.7 12.7501 16.2041 13.7364 15.4244 13.7364V15.0552ZM16.2119 7.10721C15.8469 3.88518 13.1896 1.42815 10.0001 1.42815V2.7469C12.4883 2.7469 14.6086 4.66961 14.9016 7.25565L16.2119 7.10721ZM5.09866 7.25565C5.3916 4.66961 7.51187 2.7469 10.0001 2.7469V1.42815C6.81061 1.42815 4.15328 3.88518 3.78829 7.10721L5.09866 7.25565ZM12.0202 15.9227C11.7364 16.6798 10.9536 17.2531 10.0001 17.2531V18.5718C11.4819 18.5718 12.7709 17.6773 13.255 16.3855L12.0202 15.9227ZM10.0001 17.2531C9.04658 17.2531 8.26377 16.6798 7.98005 15.9227L6.74518 16.3855C7.22929 17.6773 8.5183 18.5718 10.0001 18.5718V17.2531Z" fill="#5142FC"/>
</svg>
