<svg width="20" height="20" viewBox="0 0 20 20" fill="none" xmlns="http://www.w3.org/2000/svg">
<path d="M14.4868 11.0496C14.2466 11.2899 14.2466 11.6795 14.4868 11.9197C14.7271 12.16 15.1167 12.16 15.3569 11.9197L14.4868 11.0496ZM15.3569 7.76829C15.1167 7.52802 14.7271 7.52802 14.4868 7.76829C14.2466 8.00856 14.2466 8.39812 14.4868 8.63839L15.3569 7.76829ZM15.3569 11.9197L16.2905 10.9862L15.4204 10.1161L14.4868 11.0496L15.3569 11.9197ZM16.2905 8.70185L15.3569 7.76829L14.4868 8.63839L15.4204 9.57195L16.2905 8.70185ZM16.2905 10.9862C16.9213 10.3554 16.9213 9.33265 16.2905 8.70185L15.4204 9.57195C15.5706 9.7222 15.5706 9.96581 15.4204 10.1161L16.2905 10.9862Z" fill="#5142FC"/>
<path d="M15.742 10.4593C16.0818 10.4593 16.3573 10.1838 16.3573 9.84402C16.3573 9.50423 16.0818 9.22877 15.742 9.22877V10.4593ZM10.82 9.22877C10.4802 9.22877 10.2048 9.50422 10.2048 9.84402C10.2048 10.1838 10.4802 10.4593 10.82 10.4593L10.82 9.22877ZM2.82176 14.1642C2.82176 14.504 3.09722 14.7794 3.43701 14.7794C3.77681 14.7794 4.05226 14.504 4.05226 14.1642H2.82176ZM13.8963 14.1642C13.8963 13.8244 13.6208 13.5489 13.281 13.5489C12.9412 13.5489 12.6658 13.8244 12.6658 14.1642H13.8963ZM12.6658 5.96082C12.6658 6.30061 12.9412 6.57607 13.281 6.57607C13.6208 6.57607 13.8963 6.30061 13.8963 5.96082H12.6658ZM4.05226 5.96082C4.05226 5.62103 3.77681 5.34557 3.43701 5.34557C3.09722 5.34557 2.82176 5.62103 2.82176 5.96082H4.05226ZM4.1676 16.2919L4.50888 15.78H4.50888L4.1676 16.2919ZM5.80827 17.3857L5.46699 17.8976L5.80827 17.3857ZM5.80827 2.73931L5.46699 2.22739V2.22739L5.80827 2.73931ZM4.1676 3.83309L3.82632 3.32117L4.1676 3.83309ZM8.35903 3.7049C8.01923 3.7049 7.74377 3.98036 7.74377 4.32015C7.74377 4.65994 8.01923 4.9354 8.35903 4.9354V3.7049ZM8.35903 15.1896C8.01923 15.1896 7.74377 15.4651 7.74377 15.8048C7.74377 16.1446 8.01923 16.4201 8.35903 16.4201V15.1896ZM15.742 9.22877L10.82 9.22877L10.82 10.4593L15.742 10.4593V9.22877ZM4.05226 14.1642V5.96082H2.82176V14.1642H4.05226ZM12.6658 14.1642C12.6658 14.7305 12.2067 15.1896 11.6404 15.1896V16.4201C12.8863 16.4201 13.8963 15.4101 13.8963 14.1642H12.6658ZM11.6404 4.9354C12.2067 4.9354 12.6658 5.3945 12.6658 5.96082H13.8963C13.8963 4.71491 12.8863 3.7049 11.6404 3.7049V4.9354ZM4.50888 4.34501L6.14955 3.25123L5.46699 2.22739L3.82632 3.32117L4.50888 4.34501ZM7.74377 4.10443V16.0206H8.97428V4.10443H7.74377ZM6.14955 16.8738L4.50888 15.78L3.82632 16.8038L5.46699 17.8976L6.14955 16.8738ZM4.05226 14.9268V5.19821H2.82176V14.9268H4.05226ZM4.50888 15.78C4.22361 15.5898 4.05226 15.2696 4.05226 14.9268H2.82176C2.82176 15.6811 3.19873 16.3854 3.82632 16.8038L4.50888 15.78ZM7.74377 16.0206C7.74377 16.8396 6.831 17.3281 6.14955 16.8738L5.46699 17.8976C6.96618 18.8971 8.97428 17.8224 8.97428 16.0206H7.74377ZM6.14955 3.25123C6.831 2.79693 7.74377 3.28543 7.74377 4.10443H8.97428C8.97428 2.30263 6.96618 1.22793 5.46699 2.22739L6.14955 3.25123ZM3.82632 3.32117C3.19873 3.73956 2.82176 4.44393 2.82176 5.19821H4.05226C4.05226 4.85536 4.22361 4.53519 4.50888 4.34501L3.82632 3.32117ZM8.35903 4.9354H11.6404V3.7049H8.35903V4.9354ZM11.6404 15.1896H8.35903V16.4201H11.6404V15.1896Z" fill="#5142FC"/>
</svg>
