<svg width="20" height="20" viewBox="0 0 20 20" fill="none" xmlns="http://www.w3.org/2000/svg">
<g clip-path="url(#clip0_410_1459)">
<ellipse cx="8.20041" cy="13.7872" rx="5.51486" ry="2.75743" stroke="#5142FC" stroke-width="1.18176" stroke-linejoin="round"/>
<circle cx="8.20066" cy="5.51487" r="3.15135" stroke="#5142FC" stroke-width="1.18176" stroke-linejoin="round"/>
<path fill-rule="evenodd" clip-rule="evenodd" d="M12.1751 8.07497C11.9214 8.46802 11.6109 8.82102 11.2554 9.12239C11.5346 9.2099 11.8317 9.25707 12.1398 9.25707C13.7715 9.25707 15.0942 7.93434 15.0942 6.30268C15.0942 4.76185 13.9147 3.49652 12.4093 3.36041C12.619 3.76927 12.7709 4.21269 12.8542 4.67986C13.4774 4.95459 13.9125 5.57783 13.9125 6.30268C13.9125 7.26991 13.1378 8.05621 12.1751 8.07497Z" fill="#5142FC"/>
<path fill-rule="evenodd" clip-rule="evenodd" d="M15.2906 13.8316C15.2826 14.3155 15.1449 14.7804 14.8976 15.2139C15.1878 15.134 15.4598 15.0415 15.7094 14.9375C16.1798 14.7415 16.5991 14.493 16.9098 14.187C17.2226 13.8788 17.4575 13.4772 17.4575 12.9994C17.4575 12.5216 17.2226 12.1199 16.9098 11.8118C16.5991 11.5057 16.1798 11.2573 15.7094 11.0612C14.9037 10.7255 13.8654 10.5094 12.73 10.4534C13.5196 10.8544 14.1644 11.3583 14.6095 11.9313C14.844 11.9968 15.0602 12.071 15.2548 12.1521C15.6398 12.3125 15.9128 12.4885 16.0805 12.6537C16.2461 12.8168 16.2757 12.9333 16.2757 12.9994C16.2757 13.0655 16.2461 13.1819 16.0805 13.3451C15.918 13.5051 15.6568 13.6753 15.2906 13.8316Z" fill="#5142FC"/>
</g>
<defs>
<clipPath id="clip0_410_1459">
<rect width="20" height="20" fill="white"/>
</clipPath>
</defs>
</svg>
