<svg width="9" height="15" viewBox="0 0 9 15" fill="none" xmlns="http://www.w3.org/2000/svg">
<path d="M6.46177 6.97527L3.41522 6.08493C3.06261 5.9835 2.8172 5.65385 2.8172 5.28757C2.8172 4.82832 3.18955 4.4564 3.64935 4.4564H5.51959C5.86374 4.4564 6.20225 4.56065 6.48433 4.75224C6.65641 4.86776 6.88772 4.83959 7.0344 4.69589L8.01607 3.73793C8.21635 3.54352 8.18814 3.21951 7.96529 3.04764C7.27418 2.50668 6.41099 2.2052 5.52524 2.20238V0.849973C5.52524 0.602032 5.32213 0.39917 5.0739 0.39917H4.17122C3.92298 0.39917 3.71988 0.602032 3.71988 0.849973V2.20238H3.64935C1.85246 2.20238 0.408168 3.74357 0.5746 5.57214C0.693077 6.87102 1.68603 7.92759 2.93849 8.29387L5.82989 9.13912C6.1825 9.24337 6.42792 9.5702 6.42792 9.93648C6.42792 10.3957 6.05556 10.7677 5.59576 10.7677H3.72552C3.38137 10.7677 3.04287 10.6634 2.76078 10.4718C2.58871 10.3563 2.35739 10.3845 2.21071 10.5282L1.22904 11.4861C1.02876 11.6805 1.05697 12.0045 1.27982 12.1764C1.97093 12.7174 2.83412 13.0189 3.71988 13.0217V14.3741C3.71988 14.622 3.92298 14.8249 4.17122 14.8249H5.0739C5.32213 14.8249 5.52524 14.622 5.52524 14.3741V13.016C6.83976 12.9907 8.07249 12.2102 8.5069 10.9677C9.11339 9.2321 8.09505 7.45143 6.46177 6.97527Z" fill="#5142FC"/>
</svg>
