<svg width="176" height="29" viewBox="0 0 176 29" fill="none" xmlns="http://www.w3.org/2000/svg">
<path d="M43.2736 11.3984H40.3517C40.2684 10.9193 40.1147 10.4948 39.8907 10.125C39.6668 9.75 39.3881 9.43229 39.0548 9.17187C38.7215 8.91146 38.3413 8.71615 37.9142 8.58594C37.4923 8.45052 37.0366 8.38281 36.547 8.38281C35.6772 8.38281 34.9064 8.60156 34.2345 9.03906C33.5626 9.47135 33.0366 10.1068 32.6564 10.9453C32.2762 11.7786 32.0861 12.7969 32.0861 14C32.0861 15.224 32.2762 16.2552 32.6564 17.0937C33.0418 17.9271 33.5678 18.5573 34.2345 18.9844C34.9064 19.4062 35.6746 19.6172 36.5392 19.6172C37.0184 19.6172 37.4663 19.5547 37.8829 19.4297C38.3048 19.2995 38.6824 19.1094 39.0157 18.8594C39.3543 18.6094 39.6381 18.3021 39.8673 17.9375C40.1017 17.5729 40.2631 17.1562 40.3517 16.6875L43.2736 16.7031C43.1642 17.4635 42.9272 18.1771 42.5626 18.8438C42.2032 19.5104 41.7319 20.099 41.1486 20.6094C40.5652 21.1146 39.8829 21.5104 39.1017 21.7969C38.3204 22.0781 37.4532 22.2187 36.5001 22.2187C35.0939 22.2187 33.8387 21.8932 32.7345 21.2422C31.6303 20.5911 30.7605 19.651 30.1251 18.4219C29.4897 17.1927 29.172 15.7187 29.172 14C29.172 12.276 29.4923 10.8021 30.1329 9.57812C30.7736 8.34896 31.646 7.40885 32.7501 6.75781C33.8543 6.10677 35.1043 5.78125 36.5001 5.78125C37.3907 5.78125 38.2189 5.90625 38.9845 6.15625C39.7501 6.40625 40.4324 6.77344 41.0314 7.25781C41.6303 7.73698 42.1225 8.32552 42.5079 9.02344C42.8986 9.71615 43.1538 10.5078 43.2736 11.3984ZM45.8029 22V10H48.545V12H48.67C48.8888 11.3073 49.2638 10.7734 49.795 10.3984C50.3315 10.0182 50.9435 9.82812 51.631 9.82812C51.7872 9.82812 51.9617 9.83594 52.1544 9.85156C52.3523 9.86198 52.5164 9.88021 52.6466 9.90625V12.5078C52.5268 12.4661 52.3367 12.4297 52.0763 12.3984C51.8211 12.362 51.5737 12.3437 51.3341 12.3437C50.8185 12.3437 50.3549 12.4557 49.9435 12.6797C49.5372 12.8984 49.2169 13.2031 48.9825 13.5937C48.7482 13.9844 48.631 14.4349 48.631 14.9453V22H45.8029ZM56.6486 26.5C56.2631 26.5 55.9064 26.4688 55.5782 26.4063C55.2553 26.349 54.9975 26.2813 54.8048 26.2031L55.4611 24C55.8725 24.1198 56.2397 24.1771 56.5626 24.1719C56.8855 24.1667 57.1694 24.0651 57.4142 23.8672C57.6642 23.6745 57.8751 23.3516 58.047 22.8984L58.2892 22.25L53.9376 10H56.9376L59.7032 19.0625H59.8282L62.6017 10H65.6095L60.8048 23.4531C60.5809 24.0885 60.284 24.6328 59.9142 25.0859C59.5444 25.5443 59.0913 25.8932 58.5548 26.1328C58.0236 26.3776 57.3881 26.5 56.6486 26.5ZM67.5665 26.5V10H70.3478V11.9844H70.5118C70.6577 11.6927 70.8634 11.3828 71.129 11.0547C71.3947 10.7214 71.754 10.4375 72.2072 10.2031C72.6603 9.96354 73.2384 9.84375 73.9415 9.84375C74.8686 9.84375 75.7045 10.0807 76.4493 10.5547C77.1993 11.0234 77.7931 11.7187 78.2306 12.6406C78.6733 13.5573 78.8947 14.6823 78.8947 16.0156C78.8947 17.3333 78.6785 18.4531 78.2462 19.375C77.8139 20.2969 77.2254 21 76.4806 21.4844C75.7358 21.9688 74.892 22.2109 73.9493 22.2109C73.2618 22.2109 72.6915 22.0964 72.2384 21.8672C71.7853 21.638 71.4207 21.362 71.1447 21.0391C70.8738 20.7109 70.6629 20.401 70.5118 20.1094H70.3947V26.5H67.5665ZM70.34 16C70.34 16.776 70.4493 17.4557 70.6681 18.0391C70.892 18.6224 71.2124 19.0781 71.629 19.4062C72.0509 19.7292 72.5613 19.8906 73.1603 19.8906C73.7853 19.8906 74.3087 19.724 74.7306 19.3906C75.1525 19.0521 75.4702 18.5911 75.6837 18.0078C75.9025 17.4193 76.0118 16.75 76.0118 16C76.0118 15.2552 75.9051 14.5937 75.6915 14.0156C75.478 13.4375 75.1603 12.9844 74.7384 12.6562C74.3165 12.3281 73.7905 12.1641 73.1603 12.1641C72.5561 12.1641 72.0431 12.3229 71.6212 12.6406C71.1993 12.9583 70.879 13.4036 70.6603 13.9766C70.4467 14.5495 70.34 15.224 70.34 16ZM87.3087 10V12.1875H80.4103V10H87.3087ZM82.1134 7.125H84.9415V18.3906C84.9415 18.7708 84.9988 19.0625 85.1134 19.2656C85.2332 19.4635 85.3894 19.599 85.5822 19.6719C85.7749 19.7448 85.9884 19.7812 86.2228 19.7812C86.3999 19.7812 86.5613 19.7682 86.7072 19.7422C86.8582 19.7161 86.9728 19.6927 87.0509 19.6719L87.5275 21.8828C87.3764 21.9349 87.1603 21.9922 86.879 22.0547C86.603 22.1172 86.2644 22.1536 85.8634 22.1641C85.1551 22.1849 84.517 22.0781 83.9493 21.8437C83.3816 21.6042 82.9311 21.2344 82.5978 20.7344C82.2697 20.2344 82.1082 19.6094 82.1134 18.8594V7.125ZM94.7794 22.2344C93.6075 22.2344 92.5919 21.9766 91.7325 21.4609C90.8732 20.9453 90.2065 20.224 89.7325 19.2969C89.2638 18.3698 89.0294 17.2865 89.0294 16.0469C89.0294 14.8073 89.2638 13.7214 89.7325 12.7891C90.2065 11.8568 90.8732 11.1328 91.7325 10.6172C92.5919 10.1016 93.6075 9.84375 94.7794 9.84375C95.9513 9.84375 96.9669 10.1016 97.8263 10.6172C98.6857 11.1328 99.3497 11.8568 99.8185 12.7891C100.292 13.7214 100.529 14.8073 100.529 16.0469C100.529 17.2865 100.292 18.3698 99.8185 19.2969C99.3497 20.224 98.6857 20.9453 97.8263 21.4609C96.9669 21.9766 95.9513 22.2344 94.7794 22.2344ZM94.795 19.9687C95.4305 19.9687 95.9617 19.7943 96.3888 19.4453C96.8159 19.0911 97.1336 18.6172 97.3419 18.0234C97.5555 17.4297 97.6622 16.7682 97.6622 16.0391C97.6622 15.3047 97.5555 14.6406 97.3419 14.0469C97.1336 13.4479 96.8159 12.9714 96.3888 12.6172C95.9617 12.263 95.4305 12.0859 94.795 12.0859C94.144 12.0859 93.6023 12.263 93.17 12.6172C92.743 12.9714 92.4226 13.4479 92.2091 14.0469C92.0008 14.6406 91.8966 15.3047 91.8966 16.0391C91.8966 16.7682 92.0008 17.4297 92.2091 18.0234C92.4226 18.6172 92.743 19.0911 93.17 19.4453C93.6023 19.7943 94.144 19.9687 94.795 19.9687ZM103.055 22V6H109.055C110.284 6 111.315 6.21354 112.149 6.64062C112.987 7.06771 113.62 7.66667 114.047 8.4375C114.479 9.20312 114.695 10.0964 114.695 11.1172C114.695 12.1432 114.477 13.0339 114.039 13.7891C113.607 14.5391 112.969 15.1198 112.125 15.5312C111.281 15.9375 110.245 16.1406 109.016 16.1406H104.742V13.7344H108.625C109.344 13.7344 109.932 13.6354 110.391 13.4375C110.849 13.2344 111.188 12.9401 111.406 12.5547C111.63 12.1641 111.742 11.6849 111.742 11.1172C111.742 10.5495 111.63 10.0651 111.406 9.66406C111.182 9.25781 110.841 8.95052 110.383 8.74219C109.925 8.52865 109.333 8.42188 108.609 8.42188H105.953V22H103.055ZM111.32 14.75L115.281 22H112.047L108.156 14.75H111.32ZM122.301 22.2344C121.129 22.2344 120.113 21.9766 119.254 21.4609C118.395 20.9453 117.728 20.224 117.254 19.2969C116.785 18.3698 116.551 17.2865 116.551 16.0469C116.551 14.8073 116.785 13.7214 117.254 12.7891C117.728 11.8568 118.395 11.1328 119.254 10.6172C120.113 10.1016 121.129 9.84375 122.301 9.84375C123.473 9.84375 124.488 10.1016 125.348 10.6172C126.207 11.1328 126.871 11.8568 127.34 12.7891C127.814 13.7214 128.051 14.8073 128.051 16.0469C128.051 17.2865 127.814 18.3698 127.34 19.2969C126.871 20.224 126.207 20.9453 125.348 21.4609C124.488 21.9766 123.473 22.2344 122.301 22.2344ZM122.317 19.9687C122.952 19.9687 123.483 19.7943 123.91 19.4453C124.337 19.0911 124.655 18.6172 124.863 18.0234C125.077 17.4297 125.184 16.7682 125.184 16.0391C125.184 15.3047 125.077 14.6406 124.863 14.0469C124.655 13.4479 124.337 12.9714 123.91 12.6172C123.483 12.263 122.952 12.0859 122.317 12.0859C121.665 12.0859 121.124 12.263 120.692 12.6172C120.264 12.9714 119.944 13.4479 119.731 14.0469C119.522 14.6406 119.418 15.3047 119.418 16.0391C119.418 16.7682 119.522 17.4297 119.731 18.0234C119.944 18.6172 120.264 19.0911 120.692 19.4453C121.124 19.7943 121.665 19.9687 122.317 19.9687ZM135.686 22.2344C134.488 22.2344 133.459 21.9714 132.6 21.4453C131.746 20.9193 131.087 20.1927 130.623 19.2656C130.165 18.3333 129.936 17.2604 129.936 16.0469C129.936 14.8281 130.17 13.7526 130.639 12.8203C131.108 11.8828 131.769 11.1536 132.623 10.6328C133.483 10.1068 134.498 9.84375 135.67 9.84375C136.644 9.84375 137.506 10.0234 138.256 10.3828C139.011 10.737 139.613 11.2396 140.061 11.8906C140.509 12.5365 140.764 13.2917 140.826 14.1562H138.123C138.014 13.5781 137.753 13.0964 137.342 12.7109C136.936 12.3203 136.391 12.125 135.709 12.125C135.131 12.125 134.623 12.2812 134.186 12.5937C133.748 12.901 133.407 13.3437 133.162 13.9219C132.923 14.5 132.803 15.1927 132.803 16C132.803 16.8177 132.923 17.5208 133.162 18.1094C133.402 18.6927 133.738 19.1432 134.17 19.4609C134.608 19.7734 135.121 19.9297 135.709 19.9297C136.126 19.9297 136.498 19.8516 136.826 19.6953C137.16 19.5339 137.438 19.3021 137.662 19C137.886 18.6979 138.04 18.3307 138.123 17.8984H140.826C140.759 18.7474 140.509 19.5 140.076 20.1562C139.644 20.8073 139.055 21.3177 138.311 21.6875C137.566 22.0521 136.691 22.2344 135.686 22.2344ZM145.727 18.2344L145.719 14.8203H146.172L150.484 10H153.789L148.484 15.9062H147.899L145.727 18.2344ZM143.149 22V6H145.977V22H143.149ZM150.68 22L146.774 16.5391L148.68 14.5469L154.063 22H150.68ZM160.492 22.2344C159.289 22.2344 158.25 21.9844 157.375 21.4844C156.505 20.9792 155.836 20.2656 155.367 19.3437C154.899 18.4167 154.664 17.3255 154.664 16.0703C154.664 14.8359 154.899 13.7526 155.367 12.8203C155.841 11.8828 156.503 11.1536 157.352 10.6328C158.201 10.1068 159.198 9.84375 160.344 9.84375C161.083 9.84375 161.781 9.96354 162.438 10.2031C163.099 10.4375 163.682 10.8021 164.188 11.2969C164.698 11.7917 165.099 12.4219 165.391 13.1875C165.682 13.9479 165.828 14.8542 165.828 15.9062V16.7734H155.992V14.8672H163.117C163.112 14.3255 162.995 13.8437 162.766 13.4219C162.537 12.9948 162.216 12.6589 161.805 12.4141C161.399 12.1693 160.925 12.0469 160.383 12.0469C159.805 12.0469 159.297 12.1875 158.859 12.4687C158.422 12.7448 158.081 13.1094 157.836 13.5625C157.596 14.0104 157.474 14.5026 157.469 15.0391V16.7031C157.469 17.401 157.596 18 157.852 18.5C158.107 18.9948 158.464 19.375 158.922 19.6406C159.38 19.901 159.917 20.0312 160.531 20.0312C160.943 20.0312 161.315 19.974 161.649 19.8594C161.982 19.7396 162.271 19.5651 162.516 19.3359C162.761 19.1068 162.945 18.8229 163.07 18.4844L165.711 18.7812C165.544 19.4792 165.227 20.0885 164.758 20.6094C164.294 21.125 163.701 21.526 162.977 21.8125C162.253 22.0937 161.425 22.2344 160.492 22.2344ZM174.213 10V12.1875H167.315V10H174.213ZM169.018 7.125H171.846V18.3906C171.846 18.7708 171.903 19.0625 172.018 19.2656C172.137 19.4635 172.294 19.599 172.486 19.6719C172.679 19.7448 172.893 19.7812 173.127 19.7812C173.304 19.7812 173.466 19.7682 173.611 19.7422C173.762 19.7161 173.877 19.6927 173.955 19.6719L174.432 21.8828C174.281 21.9349 174.065 21.9922 173.783 22.0547C173.507 22.1172 173.169 22.1536 172.768 22.1641C172.059 22.1849 171.421 22.0781 170.854 21.8437C170.286 21.6042 169.835 21.2344 169.502 20.7344C169.174 20.2344 169.012 19.6094 169.018 18.8594V7.125Z" fill="#5142FC"/>
<path d="M14.3299 19.0233L13.9238 18.6776L13.8801 18.7289L13.8506 18.7894L14.3299 19.0233ZM14.2895 19.0751L14.6712 19.4476L14.7312 19.3861L14.7688 19.309L14.2895 19.0751ZM13.2478 19.2513L13.491 18.7766L13.488 18.7751L13.2478 19.2513ZM5.31868 15.2507L5.55893 14.7745L5.55634 14.7732L5.31868 15.2507ZM4.813 14.2971L5.34355 14.3516L5.34634 14.3245V14.2971H4.813ZM4.82311 14.235L4.29986 14.1317L4.28977 14.1828V14.235H4.82311ZM6.83573 9.40517L7.2766 9.70531L7.27757 9.70387L6.83573 9.40517ZM16.1302 3V2.46666H16.0739L16.0188 2.47841L16.1302 3ZM16.1403 3H16.6736V2.46666H16.1403V3ZM16.1403 3.01036H15.6069V3.11882L15.6493 3.21867L16.1403 3.01036ZM16.8381 14.4733L16.329 14.3144L16.329 14.3145L16.8381 14.4733ZM6.09744 23.8324L5.61811 24.0663L5.81814 24.4763L6.25417 24.3422L6.09744 23.8324ZM6.66381 18.4844L6.26303 18.1325L6.25832 18.138L6.66381 18.4844ZM7.0279 18.4119L6.78468 18.8866L6.78906 18.8888L7.0279 18.4119ZM8.37301 19.0856L8.61478 18.6102L8.61185 18.6087L8.37301 19.0856ZM9.71813 19.7696L9.96134 19.295L9.95989 19.2942L9.71813 19.7696ZM9.89006 20.1116L10.4137 20.2128L10.4158 20.2018L10.4175 20.1908L9.89006 20.1116ZM10.6283 20.2256L10.388 20.7017L10.391 20.7032L10.6283 20.2256ZM5.94567 17.8625L6.18596 17.3864L6.18299 17.3849L5.94567 17.8625ZM5.79397 17.0437L6.1434 17.4467L6.14814 17.4425L5.79397 17.0437ZM6.8559 16.1006L7.09612 15.6244L6.77263 15.4612L6.50173 15.7018L6.8559 16.1006ZM11.4374 18.4118L11.9699 18.4417L11.9895 18.093L11.6776 17.9356L11.4374 18.4118ZM11.3565 19.8525L11.8889 19.884L11.889 19.8824L11.3565 19.8525ZM4.81305 14.2868L4.57182 14.7625L5.05488 15.0075L5.29238 14.5207L4.81305 14.2868ZM1.84975 12.784L2.09105 12.3082L2.07986 12.3028L1.84975 12.784ZM1.57669 11.9548L2.05602 12.1887L2.05682 12.187L1.57669 11.9548ZM4.27703 9.5192L4.1027 9.01515L4.10187 9.01544L4.27703 9.5192ZM6.83578 9.38446L7.27665 9.68461L7.71084 9.04684L6.9608 8.86598L6.83578 9.38446ZM4.82317 14.2143L4.29991 14.111L4.28983 14.1621V14.2143H4.82317ZM18.0719 20.2877L18.5513 20.5216L18.5536 20.5166L18.0719 20.2877ZM17.2628 20.5676L17.5126 20.0962L17.5034 20.0916L17.2628 20.5676ZM14.2894 19.0647L13.8101 18.8309L13.5795 19.3035L14.0488 19.5407L14.2894 19.0647ZM14.3299 19.0129L13.9223 18.6688L13.8796 18.7195L13.8505 18.779L14.3299 19.0129ZM16.8482 14.4319L17.1921 14.0243L16.5784 13.5063L16.3391 14.2729L16.8482 14.4319ZM18.3045 16.5877L18.8117 16.4227L18.8111 16.4208L18.3045 16.5877ZM3.77213 16.7848C3.91531 16.5273 3.8227 16.2026 3.56528 16.0594C3.30786 15.9162 2.98312 16.0088 2.83994 16.2663L3.77213 16.7848ZM0.534028 20.412C0.39085 20.6694 0.483458 20.9942 0.740875 21.1373C0.998291 21.2805 1.32304 21.1879 1.46622 20.9305L0.534028 20.412ZM3.1919 22.4194C3.33884 22.1641 3.25101 21.8381 2.99572 21.6911C2.74043 21.5442 2.41436 21.632 2.26742 21.8873L3.1919 22.4194ZM0.972876 24.1364C0.825935 24.3917 0.913766 24.7177 1.16905 24.8647C1.42434 25.0116 1.75041 24.9238 1.89735 24.6685L0.972876 24.1364ZM9.98503 25.8553C10.1349 25.6017 10.0508 25.2747 9.79716 25.1248C9.54356 24.975 9.21651 25.0591 9.06668 25.3127L9.98503 25.8553ZM7.73167 27.5721C7.58183 27.8257 7.66594 28.1528 7.91954 28.3026C8.17314 28.4525 8.50019 28.3683 8.65003 28.1147L7.73167 27.5721ZM14.7854 22.0196C14.9291 21.7624 14.8371 21.4375 14.5799 21.2938C14.3228 21.1502 13.9978 21.2422 13.8542 21.4993L14.7854 22.0196ZM11.5382 25.6451C11.3945 25.9022 11.4865 26.2271 11.7437 26.3708C12.0008 26.5144 12.3257 26.4224 12.4694 26.1653L11.5382 25.6451ZM13.8506 18.7894C13.8714 18.7469 13.8943 18.716 13.9095 18.6976C13.9169 18.6887 13.923 18.6821 13.926 18.6789C13.9285 18.6761 13.9305 18.6741 13.928 18.6767C13.9267 18.678 13.9209 18.6839 13.9147 18.6906C13.908 18.6978 13.8983 18.7084 13.8874 18.7216C13.8652 18.7484 13.836 18.7883 13.8102 18.8412L14.7688 19.309C14.7481 19.3515 14.7251 19.3824 14.7099 19.4007C14.7025 19.4097 14.6965 19.4163 14.6935 19.4195C14.6909 19.4223 14.6889 19.4243 14.6914 19.4217C14.6927 19.4204 14.6985 19.4145 14.7048 19.4078C14.7115 19.4006 14.7212 19.39 14.732 19.3768C14.7542 19.35 14.7834 19.3101 14.8093 19.2572L13.8506 18.7894ZM13.9078 18.7026C13.7944 18.8188 13.622 18.8438 13.491 18.7766L13.0046 19.726C13.5613 20.0112 14.2385 19.8911 14.6712 19.4476L13.9078 18.7026ZM13.488 18.7751L5.55893 14.7745L5.07843 15.7268L13.0075 19.7275L13.488 18.7751ZM5.55634 14.7732C5.41821 14.7044 5.3238 14.5439 5.34355 14.3516L4.28245 14.2426C4.22129 14.8381 4.51119 15.4445 5.08102 15.7281L5.55634 14.7732ZM5.34634 14.2971C5.34634 14.3345 5.34184 14.3632 5.33921 14.3776C5.33784 14.3851 5.33662 14.3905 5.33611 14.3927C5.33571 14.3945 5.33541 14.3957 5.3362 14.3925C5.33668 14.3905 5.33823 14.3842 5.33983 14.3772C5.34151 14.3698 5.34385 14.3592 5.34616 14.3465C5.35069 14.3217 5.35645 14.2827 5.35645 14.235H4.28977C4.28977 14.1976 4.29427 14.1689 4.2969 14.1545C4.29827 14.147 4.29949 14.1416 4.3 14.1394C4.30041 14.1376 4.3007 14.1364 4.29991 14.1396C4.29943 14.1416 4.29788 14.1479 4.29628 14.1549C4.2946 14.1623 4.29226 14.1729 4.28995 14.1856C4.28542 14.2104 4.27966 14.2494 4.27966 14.2971H5.34634ZM5.34637 14.3382C5.70571 12.5169 6.40395 10.9871 7.2766 9.70531L6.39486 9.10502C5.44705 10.4972 4.68893 12.1597 4.29986 14.1317L5.34637 14.3382ZM7.27757 9.70387C8.86569 7.35472 11.0478 5.81816 12.8793 4.86012C13.7931 4.38213 14.6135 4.05142 15.2184 3.83758C15.5206 3.73072 15.7683 3.65331 15.9461 3.60146C16.035 3.57553 16.1061 3.55609 16.1574 3.54262C16.1831 3.53588 16.2036 3.53072 16.2185 3.52705C16.2346 3.52312 16.2416 3.52157 16.2415 3.52159L16.0188 2.47841C15.8547 2.51345 14.3116 2.90715 12.3849 3.91493C10.4567 4.92353 8.11293 6.56364 6.39388 9.10646L7.27757 9.70387ZM16.1302 3C16.1302 3.53334 16.1302 3.53334 16.1302 3.53334H16.1302C16.1302 3.53334 16.1302 3.53334 16.1302 3.53334H16.1302H16.1302H16.1302C16.1302 3.53334 16.1302 3.53334 16.1302 3.53334H16.1302H16.1302H16.1302H16.1302C16.1302 3.53334 16.1302 3.53334 16.1302 3.53334H16.1302C16.1302 3.53334 16.1302 3.53334 16.1302 3.53334H16.1302C16.1302 3.53334 16.1302 3.53334 16.1302 3.53334C16.1302 3.53334 16.1302 3.53334 16.1302 3.53334C16.1302 3.53334 16.1302 3.53334 16.1302 3.53334H16.1302H16.1302C16.1302 3.53334 16.1302 3.53334 16.1302 3.53334C16.1302 3.53334 16.1302 3.53334 16.1302 3.53334C16.1302 3.53334 16.1302 3.53334 16.1302 3.53334C16.1302 3.53334 16.1302 3.53334 16.1302 3.53334C16.1302 3.53334 16.1302 3.53334 16.1302 3.53334C16.1302 3.53334 16.1302 3.53334 16.1302 3.53334H16.1302H16.1302H16.1302C16.1302 3.53334 16.1302 3.53334 16.1302 3.53334C16.1302 3.53334 16.1302 3.53334 16.1302 3.53334H16.1302H16.1302C16.1302 3.53334 16.1302 3.53334 16.1302 3.53334H16.1302C16.1302 3.53334 16.1302 3.53334 16.1302 3.53334C16.1302 3.53334 16.1302 3.53334 16.1302 3.53334H16.1302C16.1302 3.53334 16.1302 3.53334 16.1302 3.53334C16.1302 3.53334 16.1302 3.53334 16.1302 3.53334H16.1302C16.1302 3.53334 16.1302 3.53334 16.1302 3.53334C16.1302 3.53334 16.1302 3.53334 16.1302 3.53334H16.1302C16.1302 3.53334 16.1302 3.53334 16.1302 3.53334C16.1302 3.53334 16.1302 3.53334 16.1302 3.53334C16.1302 3.53334 16.1302 3.53334 16.1302 3.53334C16.1302 3.53334 16.1302 3.53334 16.1302 3.53334C16.1302 3.53334 16.1302 3.53334 16.1302 3.53334C16.1302 3.53334 16.1302 3.53334 16.1302 3.53334C16.1302 3.53334 16.1302 3.53334 16.1302 3.53334C16.1302 3.53334 16.1302 3.53334 16.1302 3.53334C16.1302 3.53334 16.1302 3.53334 16.1302 3.53334C16.1302 3.53334 16.1302 3.53334 16.1302 3.53334C16.1302 3.53334 16.1302 3.53334 16.1302 3.53334C16.1302 3.53334 16.1302 3.53334 16.1302 3.53334C16.1302 3.53334 16.1302 3.53334 16.1302 3.53334C16.1302 3.53334 16.1302 3.53334 16.1302 3.53334C16.1302 3.53334 16.1302 3.53334 16.1302 3.53334C16.1302 3.53334 16.1302 3.53334 16.1302 3.53334C16.1302 3.53334 16.1303 3.53334 16.1303 3.53334C16.1303 3.53334 16.1303 3.53334 16.1303 3.53334C16.1303 3.53334 16.1303 3.53334 16.1303 3.53334C16.1303 3.53334 16.1303 3.53334 16.1303 3.53334C16.1303 3.53334 16.1303 3.53334 16.1303 3.53334C16.1303 3.53334 16.1303 3.53334 16.1303 3.53334C16.1303 3.53334 16.1303 3.53334 16.1303 3.53334C16.1303 3.53334 16.1303 3.53334 16.1303 3.53334C16.1303 3.53334 16.1303 3.53334 16.1303 3.53334C16.1303 3.53334 16.1303 3.53334 16.1303 3.53334C16.1303 3.53334 16.1303 3.53334 16.1303 3.53334C16.1303 3.53334 16.1303 3.53334 16.1303 3.53334C16.1303 3.53334 16.1303 3.53334 16.1303 3.53334C16.1303 3.53334 16.1303 3.53334 16.1303 3.53334C16.1303 3.53334 16.1303 3.53334 16.1303 3.53334C16.1303 3.53334 16.1303 3.53334 16.1303 3.53334C16.1303 3.53334 16.1303 3.53334 16.1303 3.53334C16.1303 3.53334 16.1303 3.53334 16.1303 3.53334C16.1303 3.53334 16.1303 3.53334 16.1303 3.53334C16.1303 3.53334 16.1303 3.53334 16.1303 3.53334C16.1303 3.53334 16.1303 3.53334 16.1303 3.53334C16.1303 3.53334 16.1303 3.53334 16.1303 3.53334C16.1303 3.53334 16.1303 3.53334 16.1303 3.53334C16.1303 3.53334 16.1303 3.53334 16.1303 3.53334C16.1303 3.53334 16.1303 3.53334 16.1303 3.53334C16.1303 3.53334 16.1303 3.53334 16.1303 3.53334C16.1303 3.53334 16.1303 3.53334 16.1303 3.53334C16.1303 3.53334 16.1303 3.53334 16.1303 3.53334C16.1303 3.53334 16.1303 3.53334 16.1303 3.53334C16.1303 3.53334 16.1303 3.53334 16.1303 3.53334C16.1303 3.53334 16.1303 3.53334 16.1303 3.53334C16.1303 3.53334 16.1303 3.53334 16.1304 3.53334C16.1304 3.53334 16.1304 3.53334 16.1304 3.53334C16.1304 3.53334 16.1304 3.53334 16.1304 3.53334C16.1304 3.53334 16.1304 3.53334 16.1304 3.53334C16.1304 3.53334 16.1304 3.53334 16.1304 3.53334C16.1304 3.53334 16.1304 3.53334 16.1304 3.53334C16.1304 3.53334 16.1304 3.53334 16.1304 3.53334C16.1304 3.53334 16.1304 3.53334 16.1304 3.53334C16.1304 3.53334 16.1304 3.53334 16.1304 3.53334C16.1304 3.53334 16.1304 3.53334 16.1304 3.53334C16.1304 3.53334 16.1304 3.53334 16.1304 3.53334C16.1304 3.53334 16.1304 3.53334 16.1304 3.53334C16.1304 3.53334 16.1304 3.53334 16.1304 3.53334C16.1304 3.53334 16.1304 3.53334 16.1304 3.53334C16.1304 3.53334 16.1304 3.53334 16.1304 3.53334C16.1304 3.53334 16.1304 3.53334 16.1304 3.53334C16.1304 3.53334 16.1304 3.53334 16.1304 3.53334C16.1304 3.53334 16.1304 3.53334 16.1304 3.53334C16.1304 3.53334 16.1304 3.53334 16.1304 3.53334C16.1304 3.53334 16.1304 3.53334 16.1304 3.53334C16.1304 3.53334 16.1304 3.53334 16.1304 3.53334C16.1304 3.53334 16.1304 3.53334 16.1304 3.53334C16.1305 3.53334 16.1305 3.53334 16.1305 3.53334C16.1305 3.53334 16.1305 3.53334 16.1305 3.53334C16.1305 3.53334 16.1305 3.53334 16.1305 3.53334C16.1305 3.53334 16.1305 3.53334 16.1305 3.53334C16.1305 3.53334 16.1305 3.53334 16.1305 3.53334C16.1305 3.53334 16.1305 3.53334 16.1305 3.53334C16.1305 3.53334 16.1305 3.53334 16.1305 3.53334C16.1305 3.53334 16.1305 3.53334 16.1305 3.53334C16.1305 3.53334 16.1305 3.53334 16.1305 3.53334C16.1305 3.53334 16.1305 3.53334 16.1305 3.53334C16.1305 3.53334 16.1305 3.53334 16.1305 3.53334C16.1305 3.53334 16.1305 3.53334 16.1305 3.53334C16.1305 3.53334 16.1305 3.53334 16.1305 3.53334C16.1305 3.53334 16.1305 3.53334 16.1305 3.53334C16.1305 3.53334 16.1305 3.53334 16.1305 3.53334C16.1305 3.53334 16.1305 3.53334 16.1305 3.53334C16.1305 3.53334 16.1306 3.53334 16.1306 3.53334C16.1306 3.53334 16.1306 3.53334 16.1306 3.53334C16.1306 3.53334 16.1306 3.53334 16.1306 3.53334C16.1306 3.53334 16.1306 3.53334 16.1306 3.53334C16.1306 3.53334 16.1306 3.53334 16.1306 3.53334C16.1306 3.53334 16.1306 3.53334 16.1306 3.53334C16.1306 3.53334 16.1306 3.53334 16.1306 3.53334C16.1306 3.53334 16.1306 3.53334 16.1306 3.53334C16.1306 3.53334 16.1306 3.53334 16.1306 3.53334C16.1306 3.53334 16.1306 3.53334 16.1306 3.53334C16.1306 3.53334 16.1306 3.53334 16.1306 3.53334C16.1306 3.53334 16.1306 3.53334 16.1306 3.53334C16.1306 3.53334 16.1306 3.53334 16.1306 3.53334C16.1306 3.53334 16.1306 3.53334 16.1306 3.53334C16.1306 3.53334 16.1307 3.53334 16.1307 3.53334C16.1307 3.53334 16.1307 3.53334 16.1307 3.53334C16.1307 3.53334 16.1307 3.53334 16.1307 3.53334C16.1307 3.53334 16.1307 3.53334 16.1307 3.53334C16.1307 3.53334 16.1307 3.53334 16.1307 3.53334C16.1307 3.53334 16.1307 3.53334 16.1307 3.53334C16.1307 3.53334 16.1307 3.53334 16.1307 3.53334C16.1307 3.53334 16.1307 3.53334 16.1307 3.53334C16.1307 3.53334 16.1307 3.53334 16.1307 3.53334C16.1307 3.53334 16.1307 3.53334 16.1307 3.53334C16.1307 3.53334 16.1307 3.53334 16.1307 3.53334C16.1307 3.53334 16.1307 3.53334 16.1307 3.53334C16.1307 3.53334 16.1308 3.53334 16.1308 3.53334C16.1308 3.53334 16.1308 3.53334 16.1308 3.53334C16.1308 3.53334 16.1308 3.53334 16.1308 3.53334C16.1308 3.53334 16.1308 3.53334 16.1308 3.53334C16.1308 3.53334 16.1308 3.53334 16.1308 3.53334C16.1308 3.53334 16.1308 3.53334 16.1308 3.53334C16.1308 3.53334 16.1308 3.53334 16.1308 3.53334C16.1308 3.53334 16.1308 3.53334 16.1308 3.53334C16.1308 3.53334 16.1308 3.53334 16.1308 3.53334C16.1308 3.53334 16.1308 3.53334 16.1308 3.53334C16.1308 3.53334 16.1308 3.53334 16.1308 3.53334C16.1308 3.53334 16.1309 3.53334 16.1309 3.53334C16.1309 3.53334 16.1309 3.53334 16.1309 3.53334C16.1309 3.53334 16.1309 3.53334 16.1309 3.53334C16.1309 3.53334 16.1309 3.53334 16.1309 3.53334C16.1309 3.53334 16.1309 3.53334 16.1309 3.53334C16.1309 3.53334 16.1309 3.53334 16.1309 3.53334C16.1309 3.53334 16.1309 3.53334 16.1309 3.53334C16.1309 3.53334 16.1309 3.53334 16.1309 3.53334C16.1309 3.53334 16.1309 3.53334 16.1309 3.53334C16.1309 3.53334 16.1309 3.53334 16.1309 3.53334C16.131 3.53334 16.131 3.53334 16.131 3.53334C16.131 3.53334 16.131 3.53334 16.131 3.53334C16.131 3.53334 16.131 3.53334 16.131 3.53334C16.131 3.53334 16.131 3.53334 16.131 3.53334C16.131 3.53334 16.131 3.53334 16.131 3.53334C16.131 3.53334 16.131 3.53334 16.131 3.53334C16.131 3.53334 16.131 3.53334 16.131 3.53334C16.131 3.53334 16.131 3.53334 16.131 3.53334C16.131 3.53334 16.131 3.53334 16.1311 3.53334C16.1311 3.53334 16.1311 3.53334 16.1311 3.53334C16.1311 3.53334 16.1311 3.53334 16.1311 3.53334C16.1311 3.53334 16.1311 3.53334 16.1311 3.53334C16.1311 3.53334 16.1311 3.53334 16.1311 3.53334C16.1311 3.53334 16.1311 3.53334 16.1311 3.53334C16.1311 3.53334 16.1311 3.53334 16.1311 3.53334C16.1311 3.53334 16.1311 3.53334 16.1311 3.53334C16.1311 3.53334 16.1311 3.53334 16.1311 3.53334C16.1312 3.53334 16.1312 3.53334 16.1312 3.53334C16.1312 3.53334 16.1312 3.53334 16.1312 3.53334C16.1312 3.53334 16.1312 3.53334 16.1312 3.53334C16.1312 3.53334 16.1312 3.53334 16.1312 3.53334C16.1312 3.53334 16.1312 3.53334 16.1312 3.53334C16.1312 3.53334 16.1312 3.53334 16.1312 3.53334C16.1312 3.53334 16.1312 3.53334 16.1312 3.53334C16.1312 3.53334 16.1312 3.53334 16.1313 3.53334C16.1313 3.53334 16.1313 3.53334 16.1313 3.53334C16.1313 3.53334 16.1313 3.53334 16.1313 3.53334C16.1313 3.53334 16.1313 3.53334 16.1313 3.53334C16.1313 3.53334 16.1313 3.53334 16.1313 3.53334C16.1313 3.53334 16.1313 3.53334 16.1313 3.53334C16.1313 3.53334 16.1313 3.53334 16.1313 3.53334C16.1313 3.53334 16.1313 3.53334 16.1313 3.53334C16.1314 3.53334 16.1314 3.53334 16.1314 3.53334C16.1314 3.53334 16.1314 3.53334 16.1314 3.53334C16.1314 3.53334 16.1314 3.53334 16.1314 3.53334C16.1314 3.53334 16.1314 3.53334 16.1314 3.53334C16.1314 3.53334 16.1314 3.53334 16.1314 3.53334C16.1314 3.53334 16.1314 3.53334 16.1314 3.53334C16.1314 3.53334 16.1314 3.53334 16.1314 3.53334C16.1315 3.53334 16.1315 3.53334 16.1315 3.53334C16.1315 3.53334 16.1315 3.53334 16.1315 3.53334C16.1315 3.53334 16.1315 3.53334 16.1315 3.53334C16.1315 3.53334 16.1315 3.53334 16.1315 3.53334C16.1315 3.53334 16.1315 3.53334 16.1315 3.53334C16.1315 3.53334 16.1315 3.53334 16.1315 3.53334C16.1315 3.53334 16.1315 3.53334 16.1316 3.53334C16.1316 3.53334 16.1316 3.53334 16.1316 3.53334C16.1316 3.53334 16.1316 3.53334 16.1316 3.53334C16.1316 3.53334 16.1316 3.53334 16.1316 3.53334C16.1316 3.53334 16.1316 3.53334 16.1316 3.53334C16.1316 3.53334 16.1316 3.53334 16.1316 3.53334C16.1316 3.53334 16.1316 3.53334 16.1317 3.53334C16.1317 3.53334 16.1317 3.53334 16.1317 3.53334C16.1317 3.53334 16.1317 3.53334 16.1317 3.53334C16.1317 3.53334 16.1317 3.53334 16.1317 3.53334C16.1317 3.53334 16.1317 3.53334 16.1317 3.53334C16.1317 3.53334 16.1317 3.53334 16.1317 3.53334C16.1317 3.53334 16.1317 3.53334 16.1318 3.53334C16.1318 3.53334 16.1318 3.53334 16.1318 3.53334C16.1318 3.53334 16.1318 3.53334 16.1318 3.53334C16.1318 3.53334 16.1318 3.53334 16.1318 3.53334C16.1318 3.53334 16.1318 3.53334 16.1318 3.53334C16.1318 3.53334 16.1318 3.53334 16.1318 3.53334C16.1318 3.53334 16.1319 3.53334 16.1319 3.53334C16.1319 3.53334 16.1319 3.53334 16.1319 3.53334C16.1319 3.53334 16.1319 3.53334 16.1319 3.53334C16.1319 3.53334 16.1319 3.53334 16.1319 3.53334C16.1319 3.53334 16.1319 3.53334 16.1319 3.53334C16.1319 3.53334 16.1319 3.53334 16.132 3.53334C16.132 3.53334 16.132 3.53334 16.132 3.53334C16.132 3.53334 16.132 3.53334 16.132 3.53334C16.132 3.53334 16.132 3.53334 16.132 3.53334C16.132 3.53334 16.132 3.53334 16.132 3.53334C16.132 3.53334 16.132 3.53334 16.132 3.53334C16.1321 3.53334 16.1321 3.53334 16.1321 3.53334C16.1321 3.53334 16.1321 3.53334 16.1321 3.53334C16.1321 3.53334 16.1321 3.53334 16.1321 3.53334C16.1321 3.53334 16.1321 3.53334 16.1321 3.53334C16.1321 3.53334 16.1321 3.53334 16.1321 3.53334C16.1321 3.53334 16.1322 3.53334 16.1322 3.53334C16.1322 3.53334 16.1322 3.53334 16.1322 3.53334C16.1322 3.53334 16.1322 3.53334 16.1322 3.53334C16.1322 3.53334 16.1322 3.53334 16.1322 3.53334C16.1322 3.53334 16.1322 3.53334 16.1322 3.53334C16.1323 3.53334 16.1323 3.53334 16.1323 3.53334C16.1323 3.53334 16.1323 3.53334 16.1323 3.53334C16.1323 3.53334 16.1323 3.53334 16.1323 3.53334C16.1323 3.53334 16.1323 3.53334 16.1323 3.53334C16.1323 3.53334 16.1323 3.53334 16.1323 3.53334C16.1324 3.53334 16.1324 3.53334 16.1324 3.53334C16.1324 3.53334 16.1324 3.53334 16.1324 3.53334C16.1324 3.53334 16.1324 3.53334 16.1324 3.53334C16.1324 3.53334 16.1324 3.53334 16.1324 3.53334C16.1324 3.53334 16.1325 3.53334 16.1325 3.53334C16.1325 3.53334 16.1325 3.53334 16.1325 3.53334C16.1325 3.53334 16.1325 3.53334 16.1325 3.53334C16.1325 3.53334 16.1325 3.53334 16.1325 3.53334C16.1325 3.53334 16.1325 3.53334 16.1325 3.53334C16.1326 3.53334 16.1326 3.53334 16.1326 3.53334C16.1326 3.53334 16.1326 3.53334 16.1326 3.53334C16.1326 3.53334 16.1326 3.53334 16.1326 3.53334C16.1326 3.53334 16.1326 3.53334 16.1326 3.53334C16.1326 3.53334 16.1327 3.53334 16.1327 3.53334C16.1327 3.53334 16.1327 3.53334 16.1327 3.53334C16.1327 3.53334 16.1327 3.53334 16.1327 3.53334C16.1327 3.53334 16.1327 3.53334 16.1327 3.53334C16.1327 3.53334 16.1327 3.53334 16.1328 3.53334C16.1328 3.53334 16.1328 3.53334 16.1328 3.53334C16.1328 3.53334 16.1328 3.53334 16.1328 3.53334C16.1328 3.53334 16.1328 3.53334 16.1328 3.53334C16.1328 3.53334 16.1328 3.53334 16.1329 3.53334C16.1329 3.53334 16.1329 3.53334 16.1329 3.53334C16.1329 3.53334 16.1329 3.53334 16.1329 3.53334C16.1329 3.53334 16.1329 3.53334 16.1329 3.53334C16.1329 3.53334 16.1329 3.53334 16.133 3.53334C16.133 3.53334 16.133 3.53334 16.133 3.53334C16.133 3.53334 16.133 3.53334 16.133 3.53334C16.133 3.53334 16.133 3.53334 16.133 3.53334C16.133 3.53334 16.133 3.53334 16.1331 3.53334C16.1331 3.53334 16.1331 3.53334 16.1331 3.53334C16.1331 3.53334 16.1331 3.53334 16.1331 3.53334C16.1331 3.53334 16.1331 3.53334 16.1331 3.53334C16.1331 3.53334 16.1331 3.53334 16.1332 3.53334C16.1332 3.53334 16.1332 3.53334 16.1332 3.53334C16.1332 3.53334 16.1332 3.53334 16.1332 3.53334C16.1332 3.53334 16.1332 3.53334 16.1332 3.53334C16.1332 3.53334 16.1333 3.53334 16.1333 3.53334C16.1333 3.53334 16.1333 3.53334 16.1333 3.53334C16.1333 3.53334 16.1333 3.53334 16.1333 3.53334C16.1333 3.53334 16.1333 3.53334 16.1333 3.53334C16.1334 3.53334 16.1334 3.53334 16.1334 3.53334C16.1334 3.53334 16.1334 3.53334 16.1334 3.53334C16.1334 3.53334 16.1334 3.53334 16.1334 3.53334C16.1334 3.53334 16.1334 3.53334 16.1335 3.53334C16.1335 3.53334 16.1335 3.53334 16.1335 3.53334C16.1335 3.53334 16.1335 3.53334 16.1335 3.53334C16.1335 3.53334 16.1335 3.53334 16.1335 3.53334C16.1335 3.53334 16.1336 3.53334 16.1336 3.53334C16.1336 3.53334 16.1336 3.53334 16.1336 3.53334C16.1336 3.53334 16.1336 3.53334 16.1336 3.53334C16.1336 3.53334 16.1336 3.53334 16.1337 3.53334C16.1337 3.53334 16.1337 3.53334 16.1337 3.53334C16.1337 3.53334 16.1337 3.53334 16.1337 3.53334C16.1337 3.53334 16.1337 3.53334 16.1337 3.53334C16.1338 3.53334 16.1338 3.53334 16.1338 3.53334C16.1338 3.53334 16.1338 3.53334 16.1338 3.53334C16.1338 3.53334 16.1338 3.53334 16.1338 3.53334C16.1338 3.53334 16.1339 3.53334 16.1339 3.53334C16.1339 3.53334 16.1339 3.53334 16.1339 3.53334C16.1339 3.53334 16.1339 3.53334 16.1339 3.53334C16.1339 3.53334 16.1339 3.53334 16.134 3.53334C16.134 3.53334 16.134 3.53334 16.134 3.53334C16.134 3.53334 16.134 3.53334 16.134 3.53334C16.134 3.53334 16.134 3.53334 16.134 3.53334C16.1341 3.53334 16.1341 3.53334 16.1341 3.53334C16.1341 3.53334 16.1341 3.53334 16.1341 3.53334C16.1341 3.53334 16.1341 3.53334 16.1341 3.53334C16.1342 3.53334 16.1342 3.53334 16.1342 3.53334C16.1342 3.53334 16.1342 3.53334 16.1342 3.53334C16.1342 3.53334 16.1342 3.53334 16.1342 3.53334C16.1342 3.53334 16.1343 3.53334 16.1343 3.53334C16.1343 3.53334 16.1343 3.53334 16.1343 3.53334C16.1343 3.53334 16.1343 3.53334 16.1343 3.53334C16.1343 3.53334 16.1344 3.53334 16.1344 3.53334C16.1344 3.53334 16.1344 3.53334 16.1344 3.53334C16.1344 3.53334 16.1344 3.53334 16.1344 3.53334C16.1344 3.53334 16.1345 3.53334 16.1345 3.53334C16.1345 3.53334 16.1345 3.53334 16.1345 3.53334C16.1345 3.53334 16.1345 3.53334 16.1345 3.53334C16.1345 3.53334 16.1346 3.53334 16.1346 3.53334C16.1346 3.53334 16.1346 3.53334 16.1346 3.53334C16.1346 3.53334 16.1346 3.53334 16.1346 3.53334C16.1347 3.53334 16.1347 3.53334 16.1347 3.53334C16.1347 3.53334 16.1347 3.53334 16.1347 3.53334C16.1347 3.53334 16.1347 3.53334 16.1347 3.53334C16.1348 3.53334 16.1348 3.53334 16.1348 3.53334C16.1348 3.53334 16.1348 3.53334 16.1348 3.53334C16.1348 3.53334 16.1348 3.53334 16.1348 3.53334C16.1349 3.53334 16.1349 3.53334 16.1349 3.53334C16.1349 3.53334 16.1349 3.53334 16.1349 3.53334C16.1349 3.53334 16.1349 3.53334 16.135 3.53334C16.135 3.53334 16.135 3.53334 16.135 3.53334C16.135 3.53334 16.135 3.53334 16.135 3.53334C16.135 3.53334 16.1351 3.53334 16.1351 3.53334C16.1351 3.53334 16.1351 3.53334 16.1351 3.53334C16.1351 3.53334 16.1351 3.53334 16.1351 3.53334C16.1351 3.53334 16.1352 3.53334 16.1352 3.53334C16.1352 3.53334 16.1352 3.53334 16.1352 3.53334C16.1352 3.53334 16.1352 3.53334 16.1352 3.53334C16.1353 3.53334 16.1353 3.53334 16.1353 3.53334C16.1353 3.53334 16.1353 3.53334 16.1353 3.53334C16.1353 3.53334 16.1353 3.53334 16.1354 3.53334C16.1354 3.53334 16.1354 3.53334 16.1354 3.53334C16.1354 3.53334 16.1354 3.53334 16.1354 3.53334C16.1355 3.53334 16.1355 3.53334 16.1355 3.53334C16.1355 3.53334 16.1355 3.53334 16.1355 3.53334C16.1355 3.53334 16.1355 3.53334 16.1356 3.53334C16.1356 3.53334 16.1356 3.53334 16.1356 3.53334C16.1356 3.53334 16.1356 3.53334 16.1356 3.53334C16.1356 3.53334 16.1357 3.53334 16.1357 3.53334C16.1357 3.53334 16.1357 3.53334 16.1357 3.53334C16.1357 3.53334 16.1357 3.53334 16.1358 3.53334C16.1358 3.53334 16.1358 3.53334 16.1358 3.53334C16.1358 3.53334 16.1358 3.53334 16.1358 3.53334C16.1358 3.53334 16.1359 3.53334 16.1359 3.53334C16.1359 3.53334 16.1359 3.53334 16.1359 3.53334C16.1359 3.53334 16.1359 3.53334 16.136 3.53334C16.136 3.53334 16.136 3.53334 16.136 3.53334C16.136 3.53334 16.136 3.53334 16.136 3.53334C16.136 3.53334 16.1361 3.53334 16.1361 3.53334C16.1361 3.53334 16.1361 3.53334 16.1361 3.53334C16.1361 3.53334 16.1361 3.53334 16.1362 3.53334C16.1362 3.53334 16.1362 3.53334 16.1362 3.53334C16.1362 3.53334 16.1362 3.53334 16.1362 3.53334C16.1363 3.53334 16.1363 3.53334 16.1363 3.53334C16.1363 3.53334 16.1363 3.53334 16.1363 3.53334C16.1363 3.53334 16.1364 3.53334 16.1364 3.53334C16.1364 3.53334 16.1364 3.53334 16.1364 3.53334C16.1364 3.53334 16.1364 3.53334 16.1365 3.53334C16.1365 3.53334 16.1365 3.53334 16.1365 3.53334C16.1365 3.53334 16.1365 3.53334 16.1365 3.53334C16.1366 3.53334 16.1366 3.53334 16.1366 3.53334C16.1366 3.53334 16.1366 3.53334 16.1366 3.53334C16.1366 3.53334 16.1367 3.53334 16.1367 3.53334C16.1367 3.53334 16.1367 3.53334 16.1367 3.53334C16.1367 3.53334 16.1367 3.53334 16.1368 3.53334C16.1368 3.53334 16.1368 3.53334 16.1368 3.53334C16.1368 3.53334 16.1368 3.53334 16.1369 3.53334C16.1369 3.53334 16.1369 3.53334 16.1369 3.53334C16.1369 3.53334 16.1369 3.53334 16.1369 3.53334C16.137 3.53334 16.137 3.53334 16.137 3.53334C16.137 3.53334 16.137 3.53334 16.137 3.53334C16.1371 3.53334 16.1371 3.53334 16.1371 3.53334C16.1371 3.53334 16.1371 3.53334 16.1371 3.53334C16.1371 3.53334 16.1372 3.53334 16.1372 3.53334C16.1372 3.53334 16.1372 3.53334 16.1372 3.53334C16.1372 3.53334 16.1373 3.53334 16.1373 3.53334C16.1373 3.53334 16.1373 3.53334 16.1373 3.53334C16.1373 3.53334 16.1373 3.53334 16.1374 3.53334C16.1374 3.53334 16.1374 3.53334 16.1374 3.53334C16.1374 3.53334 16.1374 3.53334 16.1375 3.53334C16.1375 3.53334 16.1375 3.53334 16.1375 3.53334C16.1375 3.53334 16.1375 3.53334 16.1376 3.53334C16.1376 3.53334 16.1376 3.53334 16.1376 3.53334C16.1376 3.53334 16.1376 3.53334 16.1376 3.53334C16.1377 3.53334 16.1377 3.53334 16.1377 3.53334C16.1377 3.53334 16.1377 3.53334 16.1377 3.53334C16.1378 3.53334 16.1378 3.53334 16.1378 3.53334C16.1378 3.53334 16.1378 3.53334 16.1378 3.53334C16.1379 3.53334 16.1379 3.53334 16.1379 3.53334C16.1379 3.53334 16.1379 3.53334 16.1379 3.53334C16.138 3.53334 16.138 3.53334 16.138 3.53334C16.138 3.53334 16.138 3.53334 16.138 3.53334C16.1381 3.53334 16.1381 3.53334 16.1381 3.53334C16.1381 3.53334 16.1381 3.53334 16.1381 3.53334C16.1382 3.53334 16.1382 3.53334 16.1382 3.53334C16.1382 3.53334 16.1382 3.53334 16.1382 3.53334C16.1383 3.53334 16.1383 3.53334 16.1383 3.53334C16.1383 3.53334 16.1383 3.53334 16.1383 3.53334C16.1384 3.53334 16.1384 3.53334 16.1384 3.53334C16.1384 3.53334 16.1384 3.53334 16.1385 3.53334C16.1385 3.53334 16.1385 3.53334 16.1385 3.53334C16.1385 3.53334 16.1385 3.53334 16.1386 3.53334C16.1386 3.53334 16.1386 3.53334 16.1386 3.53334C16.1386 3.53334 16.1386 3.53334 16.1387 3.53334C16.1387 3.53334 16.1387 3.53334 16.1387 3.53334C16.1387 3.53334 16.1387 3.53334 16.1388 3.53334C16.1388 3.53334 16.1388 3.53334 16.1388 3.53334C16.1388 3.53334 16.1389 3.53334 16.1389 3.53334C16.1389 3.53334 16.1389 3.53334 16.1389 3.53334C16.1389 3.53334 16.139 3.53334 16.139 3.53334C16.139 3.53334 16.139 3.53334 16.139 3.53334C16.1391 3.53334 16.1391 3.53334 16.1391 3.53334C16.1391 3.53334 16.1391 3.53334 16.1391 3.53334C16.1392 3.53334 16.1392 3.53334 16.1392 3.53334C16.1392 3.53334 16.1392 3.53334 16.1393 3.53334C16.1393 3.53334 16.1393 3.53334 16.1393 3.53334C16.1393 3.53334 16.1393 3.53334 16.1394 3.53334C16.1394 3.53334 16.1394 3.53334 16.1394 3.53334C16.1394 3.53334 16.1395 3.53334 16.1395 3.53334C16.1395 3.53334 16.1395 3.53334 16.1395 3.53334C16.1396 3.53334 16.1396 3.53334 16.1396 3.53334C16.1396 3.53334 16.1396 3.53334 16.1396 3.53334C16.1397 3.53334 16.1397 3.53334 16.1397 3.53334C16.1397 3.53334 16.1397 3.53334 16.1398 3.53334C16.1398 3.53334 16.1398 3.53334 16.1398 3.53334C16.1398 3.53334 16.1399 3.53334 16.1399 3.53334C16.1399 3.53334 16.1399 3.53334 16.1399 3.53334C16.14 3.53334 16.14 3.53334 16.14 3.53334C16.14 3.53334 16.14 3.53334 16.14 3.53334C16.1401 3.53334 16.1401 3.53334 16.1401 3.53334C16.1401 3.53334 16.1401 3.53334 16.1402 3.53334C16.1402 3.53334 16.1402 3.53334 16.1402 3.53334C16.1402 3.53334 16.1403 3.53334 16.1403 3.53334V2.46666C16.1403 2.46666 16.1402 2.46666 16.1402 2.46666C16.1402 2.46666 16.1402 2.46666 16.1402 2.46666C16.1401 2.46666 16.1401 2.46666 16.1401 2.46666C16.1401 2.46666 16.1401 2.46666 16.14 2.46666C16.14 2.46666 16.14 2.46666 16.14 2.46666C16.14 2.46666 16.14 2.46666 16.1399 2.46666C16.1399 2.46666 16.1399 2.46666 16.1399 2.46666C16.1399 2.46666 16.1398 2.46666 16.1398 2.46666C16.1398 2.46666 16.1398 2.46666 16.1398 2.46666C16.1397 2.46666 16.1397 2.46666 16.1397 2.46666C16.1397 2.46666 16.1397 2.46666 16.1396 2.46666C16.1396 2.46666 16.1396 2.46666 16.1396 2.46666C16.1396 2.46666 16.1396 2.46666 16.1395 2.46666C16.1395 2.46666 16.1395 2.46666 16.1395 2.46666C16.1395 2.46666 16.1394 2.46666 16.1394 2.46666C16.1394 2.46666 16.1394 2.46666 16.1394 2.46666C16.1393 2.46666 16.1393 2.46666 16.1393 2.46666C16.1393 2.46666 16.1393 2.46666 16.1393 2.46666C16.1392 2.46666 16.1392 2.46666 16.1392 2.46666C16.1392 2.46666 16.1392 2.46666 16.1391 2.46666C16.1391 2.46666 16.1391 2.46666 16.1391 2.46666C16.1391 2.46666 16.1391 2.46666 16.139 2.46666C16.139 2.46666 16.139 2.46666 16.139 2.46666C16.139 2.46666 16.1389 2.46666 16.1389 2.46666C16.1389 2.46666 16.1389 2.46666 16.1389 2.46666C16.1389 2.46666 16.1388 2.46666 16.1388 2.46666C16.1388 2.46666 16.1388 2.46666 16.1388 2.46666C16.1387 2.46666 16.1387 2.46666 16.1387 2.46666C16.1387 2.46666 16.1387 2.46666 16.1387 2.46666C16.1386 2.46666 16.1386 2.46666 16.1386 2.46666C16.1386 2.46666 16.1386 2.46666 16.1386 2.46666C16.1385 2.46666 16.1385 2.46666 16.1385 2.46666C16.1385 2.46666 16.1385 2.46666 16.1385 2.46666C16.1384 2.46666 16.1384 2.46666 16.1384 2.46666C16.1384 2.46666 16.1384 2.46666 16.1383 2.46666C16.1383 2.46666 16.1383 2.46666 16.1383 2.46666C16.1383 2.46666 16.1383 2.46666 16.1382 2.46666C16.1382 2.46666 16.1382 2.46666 16.1382 2.46666C16.1382 2.46666 16.1382 2.46666 16.1381 2.46666C16.1381 2.46666 16.1381 2.46666 16.1381 2.46666C16.1381 2.46666 16.1381 2.46666 16.138 2.46666C16.138 2.46666 16.138 2.46666 16.138 2.46666C16.138 2.46666 16.138 2.46666 16.1379 2.46666C16.1379 2.46666 16.1379 2.46666 16.1379 2.46666C16.1379 2.46666 16.1379 2.46666 16.1378 2.46666C16.1378 2.46666 16.1378 2.46666 16.1378 2.46666C16.1378 2.46666 16.1378 2.46666 16.1377 2.46666C16.1377 2.46666 16.1377 2.46666 16.1377 2.46666C16.1377 2.46666 16.1377 2.46666 16.1376 2.46666C16.1376 2.46666 16.1376 2.46666 16.1376 2.46666C16.1376 2.46666 16.1376 2.46666 16.1376 2.46666C16.1375 2.46666 16.1375 2.46666 16.1375 2.46666C16.1375 2.46666 16.1375 2.46666 16.1375 2.46666C16.1374 2.46666 16.1374 2.46666 16.1374 2.46666C16.1374 2.46666 16.1374 2.46666 16.1374 2.46666C16.1373 2.46666 16.1373 2.46666 16.1373 2.46666C16.1373 2.46666 16.1373 2.46666 16.1373 2.46666C16.1373 2.46666 16.1372 2.46666 16.1372 2.46666C16.1372 2.46666 16.1372 2.46666 16.1372 2.46666C16.1372 2.46666 16.1371 2.46666 16.1371 2.46666C16.1371 2.46666 16.1371 2.46666 16.1371 2.46666C16.1371 2.46666 16.1371 2.46666 16.137 2.46666C16.137 2.46666 16.137 2.46666 16.137 2.46666C16.137 2.46666 16.137 2.46666 16.1369 2.46666C16.1369 2.46666 16.1369 2.46666 16.1369 2.46666C16.1369 2.46666 16.1369 2.46666 16.1369 2.46666C16.1368 2.46666 16.1368 2.46666 16.1368 2.46666C16.1368 2.46666 16.1368 2.46666 16.1368 2.46666C16.1367 2.46666 16.1367 2.46666 16.1367 2.46666C16.1367 2.46666 16.1367 2.46666 16.1367 2.46666C16.1367 2.46666 16.1366 2.46666 16.1366 2.46666C16.1366 2.46666 16.1366 2.46666 16.1366 2.46666C16.1366 2.46666 16.1366 2.46666 16.1365 2.46666C16.1365 2.46666 16.1365 2.46666 16.1365 2.46666C16.1365 2.46666 16.1365 2.46666 16.1365 2.46666C16.1364 2.46666 16.1364 2.46666 16.1364 2.46666C16.1364 2.46666 16.1364 2.46666 16.1364 2.46666C16.1364 2.46666 16.1363 2.46666 16.1363 2.46666C16.1363 2.46666 16.1363 2.46666 16.1363 2.46666C16.1363 2.46666 16.1363 2.46666 16.1362 2.46666C16.1362 2.46666 16.1362 2.46666 16.1362 2.46666C16.1362 2.46666 16.1362 2.46666 16.1362 2.46666C16.1361 2.46666 16.1361 2.46666 16.1361 2.46666C16.1361 2.46666 16.1361 2.46666 16.1361 2.46666C16.1361 2.46666 16.136 2.46666 16.136 2.46666C16.136 2.46666 16.136 2.46666 16.136 2.46666C16.136 2.46666 16.136 2.46666 16.136 2.46666C16.1359 2.46666 16.1359 2.46666 16.1359 2.46666C16.1359 2.46666 16.1359 2.46666 16.1359 2.46666C16.1359 2.46666 16.1358 2.46666 16.1358 2.46666C16.1358 2.46666 16.1358 2.46666 16.1358 2.46666C16.1358 2.46666 16.1358 2.46666 16.1358 2.46666C16.1357 2.46666 16.1357 2.46666 16.1357 2.46666C16.1357 2.46666 16.1357 2.46666 16.1357 2.46666C16.1357 2.46666 16.1356 2.46666 16.1356 2.46666C16.1356 2.46666 16.1356 2.46666 16.1356 2.46666C16.1356 2.46666 16.1356 2.46666 16.1356 2.46666C16.1355 2.46666 16.1355 2.46666 16.1355 2.46666C16.1355 2.46666 16.1355 2.46666 16.1355 2.46666C16.1355 2.46666 16.1355 2.46666 16.1354 2.46666C16.1354 2.46666 16.1354 2.46666 16.1354 2.46666C16.1354 2.46666 16.1354 2.46666 16.1354 2.46666C16.1353 2.46666 16.1353 2.46666 16.1353 2.46666C16.1353 2.46666 16.1353 2.46666 16.1353 2.46666C16.1353 2.46666 16.1353 2.46666 16.1352 2.46666C16.1352 2.46666 16.1352 2.46666 16.1352 2.46666C16.1352 2.46666 16.1352 2.46666 16.1352 2.46666C16.1352 2.46666 16.1351 2.46666 16.1351 2.46666C16.1351 2.46666 16.1351 2.46666 16.1351 2.46666C16.1351 2.46666 16.1351 2.46666 16.1351 2.46666C16.1351 2.46666 16.135 2.46666 16.135 2.46666C16.135 2.46666 16.135 2.46666 16.135 2.46666C16.135 2.46666 16.135 2.46666 16.135 2.46666C16.1349 2.46666 16.1349 2.46666 16.1349 2.46666C16.1349 2.46666 16.1349 2.46666 16.1349 2.46666C16.1349 2.46666 16.1349 2.46666 16.1348 2.46666C16.1348 2.46666 16.1348 2.46666 16.1348 2.46666C16.1348 2.46666 16.1348 2.46666 16.1348 2.46666C16.1348 2.46666 16.1348 2.46666 16.1347 2.46666C16.1347 2.46666 16.1347 2.46666 16.1347 2.46666C16.1347 2.46666 16.1347 2.46666 16.1347 2.46666C16.1347 2.46666 16.1347 2.46666 16.1346 2.46666C16.1346 2.46666 16.1346 2.46666 16.1346 2.46666C16.1346 2.46666 16.1346 2.46666 16.1346 2.46666C16.1346 2.46666 16.1345 2.46666 16.1345 2.46666C16.1345 2.46666 16.1345 2.46666 16.1345 2.46666C16.1345 2.46666 16.1345 2.46666 16.1345 2.46666C16.1345 2.46666 16.1344 2.46666 16.1344 2.46666C16.1344 2.46666 16.1344 2.46666 16.1344 2.46666C16.1344 2.46666 16.1344 2.46666 16.1344 2.46666C16.1344 2.46666 16.1343 2.46666 16.1343 2.46666C16.1343 2.46666 16.1343 2.46666 16.1343 2.46666C16.1343 2.46666 16.1343 2.46666 16.1343 2.46666C16.1343 2.46666 16.1342 2.46666 16.1342 2.46666C16.1342 2.46666 16.1342 2.46666 16.1342 2.46666C16.1342 2.46666 16.1342 2.46666 16.1342 2.46666C16.1342 2.46666 16.1342 2.46666 16.1341 2.46666C16.1341 2.46666 16.1341 2.46666 16.1341 2.46666C16.1341 2.46666 16.1341 2.46666 16.1341 2.46666C16.1341 2.46666 16.1341 2.46666 16.134 2.46666C16.134 2.46666 16.134 2.46666 16.134 2.46666C16.134 2.46666 16.134 2.46666 16.134 2.46666C16.134 2.46666 16.134 2.46666 16.134 2.46666C16.1339 2.46666 16.1339 2.46666 16.1339 2.46666C16.1339 2.46666 16.1339 2.46666 16.1339 2.46666C16.1339 2.46666 16.1339 2.46666 16.1339 2.46666C16.1339 2.46666 16.1338 2.46666 16.1338 2.46666C16.1338 2.46666 16.1338 2.46666 16.1338 2.46666C16.1338 2.46666 16.1338 2.46666 16.1338 2.46666C16.1338 2.46666 16.1338 2.46666 16.1337 2.46666C16.1337 2.46666 16.1337 2.46666 16.1337 2.46666C16.1337 2.46666 16.1337 2.46666 16.1337 2.46666C16.1337 2.46666 16.1337 2.46666 16.1337 2.46666C16.1336 2.46666 16.1336 2.46666 16.1336 2.46666C16.1336 2.46666 16.1336 2.46666 16.1336 2.46666C16.1336 2.46666 16.1336 2.46666 16.1336 2.46666C16.1336 2.46666 16.1335 2.46666 16.1335 2.46666C16.1335 2.46666 16.1335 2.46666 16.1335 2.46666C16.1335 2.46666 16.1335 2.46666 16.1335 2.46666C16.1335 2.46666 16.1335 2.46666 16.1335 2.46666C16.1334 2.46666 16.1334 2.46666 16.1334 2.46666C16.1334 2.46666 16.1334 2.46666 16.1334 2.46666C16.1334 2.46666 16.1334 2.46666 16.1334 2.46666C16.1334 2.46666 16.1334 2.46666 16.1333 2.46666C16.1333 2.46666 16.1333 2.46666 16.1333 2.46666C16.1333 2.46666 16.1333 2.46666 16.1333 2.46666C16.1333 2.46666 16.1333 2.46666 16.1333 2.46666C16.1333 2.46666 16.1332 2.46666 16.1332 2.46666C16.1332 2.46666 16.1332 2.46666 16.1332 2.46666C16.1332 2.46666 16.1332 2.46666 16.1332 2.46666C16.1332 2.46666 16.1332 2.46666 16.1332 2.46666C16.1331 2.46666 16.1331 2.46666 16.1331 2.46666C16.1331 2.46666 16.1331 2.46666 16.1331 2.46666C16.1331 2.46666 16.1331 2.46666 16.1331 2.46666C16.1331 2.46666 16.1331 2.46666 16.1331 2.46666C16.133 2.46666 16.133 2.46666 16.133 2.46666C16.133 2.46666 16.133 2.46666 16.133 2.46666C16.133 2.46666 16.133 2.46666 16.133 2.46666C16.133 2.46666 16.133 2.46666 16.133 2.46666C16.1329 2.46666 16.1329 2.46666 16.1329 2.46666C16.1329 2.46666 16.1329 2.46666 16.1329 2.46666C16.1329 2.46666 16.1329 2.46666 16.1329 2.46666C16.1329 2.46666 16.1329 2.46666 16.1329 2.46666C16.1328 2.46666 16.1328 2.46666 16.1328 2.46666C16.1328 2.46666 16.1328 2.46666 16.1328 2.46666C16.1328 2.46666 16.1328 2.46666 16.1328 2.46666C16.1328 2.46666 16.1328 2.46666 16.1328 2.46666C16.1327 2.46666 16.1327 2.46666 16.1327 2.46666C16.1327 2.46666 16.1327 2.46666 16.1327 2.46666C16.1327 2.46666 16.1327 2.46666 16.1327 2.46666C16.1327 2.46666 16.1327 2.46666 16.1327 2.46666C16.1327 2.46666 16.1326 2.46666 16.1326 2.46666C16.1326 2.46666 16.1326 2.46666 16.1326 2.46666C16.1326 2.46666 16.1326 2.46666 16.1326 2.46666C16.1326 2.46666 16.1326 2.46666 16.1326 2.46666C16.1326 2.46666 16.1326 2.46666 16.1325 2.46666C16.1325 2.46666 16.1325 2.46666 16.1325 2.46666C16.1325 2.46666 16.1325 2.46666 16.1325 2.46666C16.1325 2.46666 16.1325 2.46666 16.1325 2.46666C16.1325 2.46666 16.1325 2.46666 16.1325 2.46666C16.1325 2.46666 16.1324 2.46666 16.1324 2.46666C16.1324 2.46666 16.1324 2.46666 16.1324 2.46666C16.1324 2.46666 16.1324 2.46666 16.1324 2.46666C16.1324 2.46666 16.1324 2.46666 16.1324 2.46666C16.1324 2.46666 16.1324 2.46666 16.1323 2.46666C16.1323 2.46666 16.1323 2.46666 16.1323 2.46666C16.1323 2.46666 16.1323 2.46666 16.1323 2.46666C16.1323 2.46666 16.1323 2.46666 16.1323 2.46666C16.1323 2.46666 16.1323 2.46666 16.1323 2.46666C16.1323 2.46666 16.1323 2.46666 16.1322 2.46666C16.1322 2.46666 16.1322 2.46666 16.1322 2.46666C16.1322 2.46666 16.1322 2.46666 16.1322 2.46666C16.1322 2.46666 16.1322 2.46666 16.1322 2.46666C16.1322 2.46666 16.1322 2.46666 16.1322 2.46666C16.1322 2.46666 16.1321 2.46666 16.1321 2.46666C16.1321 2.46666 16.1321 2.46666 16.1321 2.46666C16.1321 2.46666 16.1321 2.46666 16.1321 2.46666C16.1321 2.46666 16.1321 2.46666 16.1321 2.46666C16.1321 2.46666 16.1321 2.46666 16.1321 2.46666C16.1321 2.46666 16.1321 2.46666 16.132 2.46666C16.132 2.46666 16.132 2.46666 16.132 2.46666C16.132 2.46666 16.132 2.46666 16.132 2.46666C16.132 2.46666 16.132 2.46666 16.132 2.46666C16.132 2.46666 16.132 2.46666 16.132 2.46666C16.132 2.46666 16.132 2.46666 16.132 2.46666C16.1319 2.46666 16.1319 2.46666 16.1319 2.46666C16.1319 2.46666 16.1319 2.46666 16.1319 2.46666C16.1319 2.46666 16.1319 2.46666 16.1319 2.46666C16.1319 2.46666 16.1319 2.46666 16.1319 2.46666C16.1319 2.46666 16.1319 2.46666 16.1319 2.46666C16.1319 2.46666 16.1318 2.46666 16.1318 2.46666C16.1318 2.46666 16.1318 2.46666 16.1318 2.46666C16.1318 2.46666 16.1318 2.46666 16.1318 2.46666C16.1318 2.46666 16.1318 2.46666 16.1318 2.46666C16.1318 2.46666 16.1318 2.46666 16.1318 2.46666C16.1318 2.46666 16.1318 2.46666 16.1318 2.46666C16.1317 2.46666 16.1317 2.46666 16.1317 2.46666C16.1317 2.46666 16.1317 2.46666 16.1317 2.46666C16.1317 2.46666 16.1317 2.46666 16.1317 2.46666C16.1317 2.46666 16.1317 2.46666 16.1317 2.46666C16.1317 2.46666 16.1317 2.46666 16.1317 2.46666C16.1317 2.46666 16.1317 2.46666 16.1317 2.46666C16.1316 2.46666 16.1316 2.46666 16.1316 2.46666C16.1316 2.46666 16.1316 2.46666 16.1316 2.46666C16.1316 2.46666 16.1316 2.46666 16.1316 2.46666C16.1316 2.46666 16.1316 2.46666 16.1316 2.46666C16.1316 2.46666 16.1316 2.46666 16.1316 2.46666C16.1316 2.46666 16.1316 2.46666 16.1316 2.46666C16.1315 2.46666 16.1315 2.46666 16.1315 2.46666C16.1315 2.46666 16.1315 2.46666 16.1315 2.46666C16.1315 2.46666 16.1315 2.46666 16.1315 2.46666C16.1315 2.46666 16.1315 2.46666 16.1315 2.46666C16.1315 2.46666 16.1315 2.46666 16.1315 2.46666C16.1315 2.46666 16.1315 2.46666 16.1315 2.46666C16.1315 2.46666 16.1315 2.46666 16.1314 2.46666C16.1314 2.46666 16.1314 2.46666 16.1314 2.46666C16.1314 2.46666 16.1314 2.46666 16.1314 2.46666C16.1314 2.46666 16.1314 2.46666 16.1314 2.46666C16.1314 2.46666 16.1314 2.46666 16.1314 2.46666C16.1314 2.46666 16.1314 2.46666 16.1314 2.46666C16.1314 2.46666 16.1314 2.46666 16.1314 2.46666C16.1314 2.46666 16.1314 2.46666 16.1313 2.46666C16.1313 2.46666 16.1313 2.46666 16.1313 2.46666C16.1313 2.46666 16.1313 2.46666 16.1313 2.46666C16.1313 2.46666 16.1313 2.46666 16.1313 2.46666C16.1313 2.46666 16.1313 2.46666 16.1313 2.46666C16.1313 2.46666 16.1313 2.46666 16.1313 2.46666C16.1313 2.46666 16.1313 2.46666 16.1313 2.46666C16.1313 2.46666 16.1313 2.46666 16.1313 2.46666C16.1312 2.46666 16.1312 2.46666 16.1312 2.46666C16.1312 2.46666 16.1312 2.46666 16.1312 2.46666C16.1312 2.46666 16.1312 2.46666 16.1312 2.46666C16.1312 2.46666 16.1312 2.46666 16.1312 2.46666C16.1312 2.46666 16.1312 2.46666 16.1312 2.46666C16.1312 2.46666 16.1312 2.46666 16.1312 2.46666C16.1312 2.46666 16.1312 2.46666 16.1312 2.46666C16.1312 2.46666 16.1312 2.46666 16.1311 2.46666C16.1311 2.46666 16.1311 2.46666 16.1311 2.46666C16.1311 2.46666 16.1311 2.46666 16.1311 2.46666C16.1311 2.46666 16.1311 2.46666 16.1311 2.46666C16.1311 2.46666 16.1311 2.46666 16.1311 2.46666C16.1311 2.46666 16.1311 2.46666 16.1311 2.46666C16.1311 2.46666 16.1311 2.46666 16.1311 2.46666C16.1311 2.46666 16.1311 2.46666 16.1311 2.46666C16.1311 2.46666 16.1311 2.46666 16.1311 2.46666C16.131 2.46666 16.131 2.46666 16.131 2.46666C16.131 2.46666 16.131 2.46666 16.131 2.46666C16.131 2.46666 16.131 2.46666 16.131 2.46666C16.131 2.46666 16.131 2.46666 16.131 2.46666C16.131 2.46666 16.131 2.46666 16.131 2.46666C16.131 2.46666 16.131 2.46666 16.131 2.46666C16.131 2.46666 16.131 2.46666 16.131 2.46666C16.131 2.46666 16.131 2.46666 16.131 2.46666C16.131 2.46666 16.131 2.46666 16.1309 2.46666C16.1309 2.46666 16.1309 2.46666 16.1309 2.46666C16.1309 2.46666 16.1309 2.46666 16.1309 2.46666C16.1309 2.46666 16.1309 2.46666 16.1309 2.46666C16.1309 2.46666 16.1309 2.46666 16.1309 2.46666C16.1309 2.46666 16.1309 2.46666 16.1309 2.46666C16.1309 2.46666 16.1309 2.46666 16.1309 2.46666C16.1309 2.46666 16.1309 2.46666 16.1309 2.46666C16.1309 2.46666 16.1309 2.46666 16.1309 2.46666C16.1309 2.46666 16.1309 2.46666 16.1309 2.46666C16.1309 2.46666 16.1308 2.46666 16.1308 2.46666C16.1308 2.46666 16.1308 2.46666 16.1308 2.46666C16.1308 2.46666 16.1308 2.46666 16.1308 2.46666C16.1308 2.46666 16.1308 2.46666 16.1308 2.46666C16.1308 2.46666 16.1308 2.46666 16.1308 2.46666C16.1308 2.46666 16.1308 2.46666 16.1308 2.46666C16.1308 2.46666 16.1308 2.46666 16.1308 2.46666C16.1308 2.46666 16.1308 2.46666 16.1308 2.46666C16.1308 2.46666 16.1308 2.46666 16.1308 2.46666C16.1308 2.46666 16.1308 2.46666 16.1308 2.46666C16.1308 2.46666 16.1308 2.46666 16.1308 2.46666C16.1308 2.46666 16.1307 2.46666 16.1307 2.46666C16.1307 2.46666 16.1307 2.46666 16.1307 2.46666C16.1307 2.46666 16.1307 2.46666 16.1307 2.46666C16.1307 2.46666 16.1307 2.46666 16.1307 2.46666C16.1307 2.46666 16.1307 2.46666 16.1307 2.46666C16.1307 2.46666 16.1307 2.46666 16.1307 2.46666C16.1307 2.46666 16.1307 2.46666 16.1307 2.46666C16.1307 2.46666 16.1307 2.46666 16.1307 2.46666C16.1307 2.46666 16.1307 2.46666 16.1307 2.46666C16.1307 2.46666 16.1307 2.46666 16.1307 2.46666C16.1307 2.46666 16.1307 2.46666 16.1307 2.46666C16.1307 2.46666 16.1307 2.46666 16.1307 2.46666C16.1307 2.46666 16.1306 2.46666 16.1306 2.46666C16.1306 2.46666 16.1306 2.46666 16.1306 2.46666C16.1306 2.46666 16.1306 2.46666 16.1306 2.46666C16.1306 2.46666 16.1306 2.46666 16.1306 2.46666C16.1306 2.46666 16.1306 2.46666 16.1306 2.46666C16.1306 2.46666 16.1306 2.46666 16.1306 2.46666C16.1306 2.46666 16.1306 2.46666 16.1306 2.46666C16.1306 2.46666 16.1306 2.46666 16.1306 2.46666C16.1306 2.46666 16.1306 2.46666 16.1306 2.46666C16.1306 2.46666 16.1306 2.46666 16.1306 2.46666C16.1306 2.46666 16.1306 2.46666 16.1306 2.46666C16.1306 2.46666 16.1306 2.46666 16.1306 2.46666C16.1306 2.46666 16.1306 2.46666 16.1306 2.46666C16.1306 2.46666 16.1306 2.46666 16.1306 2.46666C16.1306 2.46666 16.1305 2.46666 16.1305 2.46666C16.1305 2.46666 16.1305 2.46666 16.1305 2.46666C16.1305 2.46666 16.1305 2.46666 16.1305 2.46666C16.1305 2.46666 16.1305 2.46666 16.1305 2.46666C16.1305 2.46666 16.1305 2.46666 16.1305 2.46666C16.1305 2.46666 16.1305 2.46666 16.1305 2.46666C16.1305 2.46666 16.1305 2.46666 16.1305 2.46666C16.1305 2.46666 16.1305 2.46666 16.1305 2.46666C16.1305 2.46666 16.1305 2.46666 16.1305 2.46666C16.1305 2.46666 16.1305 2.46666 16.1305 2.46666C16.1305 2.46666 16.1305 2.46666 16.1305 2.46666C16.1305 2.46666 16.1305 2.46666 16.1305 2.46666C16.1305 2.46666 16.1305 2.46666 16.1305 2.46666C16.1305 2.46666 16.1305 2.46666 16.1305 2.46666C16.1305 2.46666 16.1305 2.46666 16.1305 2.46666C16.1305 2.46666 16.1305 2.46666 16.1305 2.46666C16.1305 2.46666 16.1305 2.46666 16.1304 2.46666C16.1304 2.46666 16.1304 2.46666 16.1304 2.46666C16.1304 2.46666 16.1304 2.46666 16.1304 2.46666C16.1304 2.46666 16.1304 2.46666 16.1304 2.46666C16.1304 2.46666 16.1304 2.46666 16.1304 2.46666C16.1304 2.46666 16.1304 2.46666 16.1304 2.46666C16.1304 2.46666 16.1304 2.46666 16.1304 2.46666C16.1304 2.46666 16.1304 2.46666 16.1304 2.46666C16.1304 2.46666 16.1304 2.46666 16.1304 2.46666C16.1304 2.46666 16.1304 2.46666 16.1304 2.46666C16.1304 2.46666 16.1304 2.46666 16.1304 2.46666C16.1304 2.46666 16.1304 2.46666 16.1304 2.46666C16.1304 2.46666 16.1304 2.46666 16.1304 2.46666C16.1304 2.46666 16.1304 2.46666 16.1304 2.46666C16.1304 2.46666 16.1304 2.46666 16.1304 2.46666C16.1304 2.46666 16.1304 2.46666 16.1304 2.46666C16.1304 2.46666 16.1304 2.46666 16.1304 2.46666C16.1304 2.46666 16.1304 2.46666 16.1304 2.46666C16.1304 2.46666 16.1304 2.46666 16.1304 2.46666C16.1304 2.46666 16.1304 2.46666 16.1304 2.46666C16.1304 2.46666 16.1304 2.46666 16.1304 2.46666C16.1304 2.46666 16.1304 2.46666 16.1304 2.46666C16.1303 2.46666 16.1303 2.46666 16.1303 2.46666C16.1303 2.46666 16.1303 2.46666 16.1303 2.46666C16.1303 2.46666 16.1303 2.46666 16.1303 2.46666C16.1303 2.46666 16.1303 2.46666 16.1303 2.46666C16.1303 2.46666 16.1303 2.46666 16.1303 2.46666C16.1303 2.46666 16.1303 2.46666 16.1303 2.46666C16.1303 2.46666 16.1303 2.46666 16.1303 2.46666C16.1303 2.46666 16.1303 2.46666 16.1303 2.46666C16.1303 2.46666 16.1303 2.46666 16.1303 2.46666C16.1303 2.46666 16.1303 2.46666 16.1303 2.46666C16.1303 2.46666 16.1303 2.46666 16.1303 2.46666C16.1303 2.46666 16.1303 2.46666 16.1303 2.46666C16.1303 2.46666 16.1303 2.46666 16.1303 2.46666C16.1303 2.46666 16.1303 2.46666 16.1303 2.46666C16.1303 2.46666 16.1303 2.46666 16.1303 2.46666C16.1303 2.46666 16.1303 2.46666 16.1303 2.46666C16.1303 2.46666 16.1303 2.46666 16.1303 2.46666C16.1303 2.46666 16.1303 2.46666 16.1303 2.46666C16.1303 2.46666 16.1303 2.46666 16.1303 2.46666C16.1303 2.46666 16.1303 2.46666 16.1303 2.46666C16.1303 2.46666 16.1303 2.46666 16.1303 2.46666C16.1303 2.46666 16.1303 2.46666 16.1303 2.46666C16.1303 2.46666 16.1303 2.46666 16.1303 2.46666C16.1303 2.46666 16.1303 2.46666 16.1303 2.46666C16.1303 2.46666 16.1303 2.46666 16.1303 2.46666C16.1303 2.46666 16.1303 2.46666 16.1303 2.46666C16.1303 2.46666 16.1303 2.46666 16.1303 2.46666C16.1303 2.46666 16.1303 2.46666 16.1303 2.46666C16.1303 2.46666 16.1303 2.46666 16.1303 2.46666C16.1303 2.46666 16.1303 2.46666 16.1303 2.46666C16.1303 2.46666 16.1303 2.46666 16.1303 2.46666C16.1303 2.46666 16.1302 2.46666 16.1302 2.46666C16.1302 2.46666 16.1302 2.46666 16.1302 2.46666C16.1302 2.46666 16.1302 2.46666 16.1302 2.46666C16.1302 2.46666 16.1302 2.46666 16.1302 2.46666C16.1302 2.46666 16.1302 2.46666 16.1302 2.46666C16.1302 2.46666 16.1302 2.46666 16.1302 2.46666C16.1302 2.46666 16.1302 2.46666 16.1302 2.46666C16.1302 2.46666 16.1302 2.46666 16.1302 2.46666C16.1302 2.46666 16.1302 2.46666 16.1302 2.46666C16.1302 2.46666 16.1302 2.46666 16.1302 2.46666C16.1302 2.46666 16.1302 2.46666 16.1302 2.46666C16.1302 2.46666 16.1302 2.46666 16.1302 2.46666C16.1302 2.46666 16.1302 2.46666 16.1302 2.46666C16.1302 2.46666 16.1302 2.46666 16.1302 2.46666C16.1302 2.46666 16.1302 2.46666 16.1302 2.46666C16.1302 2.46666 16.1302 2.46666 16.1302 2.46666C16.1302 2.46666 16.1302 2.46666 16.1302 2.46666H16.1302C16.1302 2.46666 16.1302 2.46666 16.1302 2.46666C16.1302 2.46666 16.1302 2.46666 16.1302 2.46666H16.1302C16.1302 2.46666 16.1302 2.46666 16.1302 2.46666C16.1302 2.46666 16.1302 2.46666 16.1302 2.46666H16.1302C16.1302 2.46666 16.1302 2.46666 16.1302 2.46666C16.1302 2.46666 16.1302 2.46666 16.1302 2.46666H16.1302C16.1302 2.46666 16.1302 2.46666 16.1302 2.46666H16.1302H16.1302C16.1302 2.46666 16.1302 2.46666 16.1302 2.46666C16.1302 2.46666 16.1302 2.46666 16.1302 2.46666H16.1302H16.1302H16.1302C16.1302 2.46666 16.1302 2.46666 16.1302 2.46666C16.1302 2.46666 16.1302 2.46666 16.1302 2.46666C16.1302 2.46666 16.1302 2.46666 16.1302 2.46666C16.1302 2.46666 16.1302 2.46666 16.1302 2.46666C16.1302 2.46666 16.1302 2.46666 16.1302 2.46666C16.1302 2.46666 16.1302 2.46666 16.1302 2.46666H16.1302H16.1302C16.1302 2.46666 16.1302 2.46666 16.1302 2.46666C16.1302 2.46666 16.1302 2.46666 16.1302 2.46666C16.1302 2.46666 16.1302 2.46666 16.1302 2.46666H16.1302C16.1302 2.46666 16.1302 2.46666 16.1302 2.46666H16.1302C16.1302 2.46666 16.1302 2.46666 16.1302 2.46666H16.1302H16.1302H16.1302H16.1302C16.1302 2.46666 16.1302 2.46666 16.1302 2.46666H16.1302H16.1302H16.1302C16.1302 2.46666 16.1302 2.46666 16.1302 2.46666H16.1302C16.1302 2.46666 16.1302 2.46666 16.1302 3ZM15.6069 3V3.01036H16.6736V3H15.6069ZM15.6493 3.21867C15.7457 3.44599 18.0373 8.84238 16.329 14.3144L17.3472 14.6323C19.1787 8.76569 16.7371 3.0515 16.6313 2.80206L15.6493 3.21867ZM16.329 14.3145C15.873 15.7761 15.1169 17.2759 13.9238 18.6776L14.7361 19.369C16.0309 17.8479 16.8526 16.2177 17.3473 14.6322L16.329 14.3145ZM6.57677 23.5986C6.57915 23.6035 6.49798 23.4245 6.40513 23.1158C6.31354 22.8112 6.21456 22.3932 6.17233 21.916C6.08764 20.959 6.23304 19.8097 7.0693 18.8309L6.25832 18.138C5.17298 19.4083 5.00991 20.8812 5.1098 22.01C5.2091 23.1321 5.57129 23.9704 5.61811 24.0663L6.57677 23.5986ZM7.06455 18.8364C7.00033 18.9095 6.8887 18.9398 6.78469 18.8866L7.27111 17.9372C6.92437 17.7596 6.50933 17.8521 6.26307 18.1325L7.06455 18.8364ZM6.78906 18.8888L8.13418 19.5625L8.61185 18.6087L7.26674 17.935L6.78906 18.8888ZM8.13125 19.561L9.47637 20.245L9.95989 19.2942L8.61477 18.6102L8.13125 19.561ZM9.47492 20.2443C9.42346 20.2179 9.39457 20.1809 9.37983 20.1513C9.36521 20.1219 9.35524 20.0817 9.36263 20.0325L10.4175 20.1908C10.4702 19.84 10.2957 19.4663 9.96134 19.295L9.47492 20.2443ZM9.36639 20.0105C9.1195 21.2892 8.31748 22.1026 7.5295 22.6126C6.7377 23.125 6.00473 23.303 5.94071 23.3227L6.25417 24.3422C6.25388 24.3423 6.50542 24.2782 6.84394 24.1484C7.18538 24.0176 7.63826 23.8128 8.10909 23.508C9.05054 22.8987 10.0943 21.8672 10.4137 20.2128L9.36639 20.0105ZM10.8686 19.7494L6.18596 17.3864L5.70539 18.3387L10.388 20.7017L10.8686 19.7494ZM6.18299 17.3849C6.1662 17.3765 6.16864 17.3695 6.17031 17.3784C6.17116 17.383 6.17204 17.3939 6.16709 17.4092C6.16163 17.426 6.15176 17.4394 6.14338 17.4467L5.44456 16.6408C4.83863 17.1662 5.10187 18.0388 5.70835 18.3401L6.18299 17.3849ZM6.14814 17.4425L7.21007 16.4993L6.50173 15.7018L5.4398 16.645L6.14814 17.4425ZM6.61568 16.5768L11.1972 18.888L11.6776 17.9356L7.09612 15.6244L6.61568 16.5768ZM10.9049 18.3819L10.824 19.8226L11.889 19.8824L11.9699 18.4417L10.9049 18.3819ZM10.8241 19.821C10.8247 19.8105 10.829 19.7949 10.8389 19.7802C10.8481 19.7666 10.8583 19.7592 10.865 19.7557C10.8797 19.7481 10.8818 19.756 10.8656 19.748L10.391 20.7032C11.0107 21.0111 11.8425 20.6684 11.8889 19.884L10.8241 19.821ZM14.545 9.87161C14.545 10.8029 13.8116 11.5355 12.9343 11.5355V12.6022C14.4252 12.6022 15.6117 11.3673 15.6117 9.87161H14.545ZM12.9343 11.5355C12.0569 11.5355 11.3235 10.8029 11.3235 9.87161H10.2568C10.2568 11.3673 11.4433 12.6022 12.9343 12.6022V11.5355ZM11.3235 9.87161C11.3235 8.94027 12.0569 8.20771 12.9343 8.20771V7.14102C11.4433 7.14102 10.2568 8.37593 10.2568 9.87161H11.3235ZM12.9343 8.20771C13.8116 8.20771 14.545 8.94027 14.545 9.87161H15.6117C15.6117 8.37593 14.4252 7.14102 12.9343 7.14102V8.20771ZM5.05429 13.8111L2.09099 12.3083L1.60852 13.2596L4.57182 14.7625L5.05429 13.8111ZM2.07986 12.3028C2.06765 12.297 2.05614 12.2861 2.04932 12.2653C2.04228 12.2439 2.04241 12.2166 2.05602 12.1887L1.09735 11.721C0.823984 12.2812 1.03245 12.9843 1.61965 13.2651L2.07986 12.3028ZM2.05682 12.187C2.57162 11.1227 3.45297 10.3704 4.45218 10.023L4.10187 9.01544C2.83563 9.45571 1.73471 10.4032 1.09655 11.7226L2.05682 12.187ZM4.45136 10.0232C5.17039 9.77456 5.95649 9.72107 6.71076 9.90294L6.9608 8.86598C5.99575 8.63328 5.00185 8.70417 4.1027 9.01516L4.45136 10.0232ZM6.39491 9.08432C5.4471 10.4765 4.68898 12.139 4.29991 14.111L5.34642 14.3175C5.70576 12.4962 6.40401 10.9664 7.27665 9.68461L6.39491 9.08432ZM4.28983 14.2143C4.28983 14.2275 4.28945 14.2154 4.29108 14.1987C4.29203 14.1891 4.29413 14.1717 4.29926 14.1495C4.30421 14.1281 4.31396 14.0934 4.33372 14.0529L5.29238 14.5207C5.33861 14.4259 5.34914 14.339 5.35272 14.3023C5.35688 14.2597 5.35651 14.2217 5.35651 14.2143H4.28983ZM17.5926 20.0539C17.5793 20.0811 17.5609 20.0934 17.5467 20.0983C17.5329 20.103 17.5225 20.1016 17.5126 20.0963L17.013 21.0388C17.5881 21.3436 18.275 21.0877 18.5512 20.5216L17.5926 20.0539ZM17.5034 20.0916L14.53 18.5887L14.0488 19.5407L17.0222 21.0436L17.5034 20.0916ZM14.7687 19.2986C14.748 19.3412 14.725 19.372 14.7098 19.3904C14.7024 19.3994 14.6964 19.4059 14.6934 19.4092C14.6908 19.4119 14.6888 19.4139 14.6913 19.4113C14.6926 19.41 14.6984 19.4041 14.7047 19.3974C14.7114 19.3902 14.7211 19.3796 14.732 19.3664C14.7541 19.3396 14.7834 19.2997 14.8092 19.2468L13.8505 18.779C13.8713 18.7365 13.8942 18.7057 13.9094 18.6873C13.9168 18.6783 13.9229 18.6717 13.9259 18.6685C13.9285 18.6658 13.9304 18.6637 13.9279 18.6663C13.9267 18.6676 13.9209 18.6735 13.9146 18.6802C13.9079 18.6874 13.8982 18.698 13.8873 18.7112C13.8652 18.7381 13.8359 18.7779 13.8101 18.8309L14.7687 19.2986ZM14.7374 19.357C16.0203 17.8375 16.8521 16.2084 17.3573 14.5908L16.3391 14.2729C15.8732 15.7646 15.1071 17.2656 13.9223 18.6688L14.7374 19.357ZM16.5042 14.8395C17.1154 15.3553 17.5553 16.0178 17.7979 16.7545L18.8111 16.4208C18.5076 15.4992 17.9564 14.6692 17.1921 14.0243L16.5042 14.8395ZM17.7973 16.7526C18.1414 17.8105 18.0953 18.9958 17.5902 20.0588L18.5536 20.5166C19.1812 19.1959 19.2362 17.7278 18.8117 16.4227L17.7973 16.7526ZM2.83994 16.2663L0.534028 20.412L1.46622 20.9305L3.77213 16.7848L2.83994 16.2663ZM2.26742 21.8873L0.972876 24.1364L1.89735 24.6685L3.1919 22.4194L2.26742 21.8873ZM9.06668 25.3127L7.73167 27.5721L8.65003 28.1147L9.98503 25.8553L9.06668 25.3127ZM13.8542 21.4993L11.5382 25.6451L12.4694 26.1653L14.7854 22.0196L13.8542 21.4993Z" fill="#5142FC"/>
</svg>
