<svg width="30" height="26" viewBox="0 0 30 26" fill="none" xmlns="http://www.w3.org/2000/svg">
<path fill-rule="evenodd" clip-rule="evenodd" d="M13.9486 3.89944C10.9779 1.85851 6.85424 0.92911 3.77673 0.581354C2.23755 0.407428 0.980835 1.69273 0.980835 3.27852V19.0709C0.980835 20.6567 2.23755 21.9424 3.77673 22.1164C6.85424 22.4641 10.9779 23.3935 13.9486 25.4344V3.89944ZM16.0515 25.4344C19.0223 23.3935 23.1459 22.4641 26.2234 22.1164C27.7626 21.9424 29.0193 20.6567 29.0193 19.0709V3.27852C29.0193 1.69273 27.7626 0.407428 26.2234 0.581354C23.1459 0.92911 19.0223 1.85851 16.0515 3.89944V25.4344ZM4.14753 7.77138C4.2364 7.19753 4.77365 6.80437 5.3475 6.89324C7.17389 7.1761 9.23072 7.64887 11.1735 8.40015C11.7151 8.60959 11.9844 9.21844 11.7749 9.76005C11.5655 10.3017 10.9567 10.5709 10.415 10.3615C8.65052 9.67915 6.74832 9.23814 5.02566 8.97136C4.45181 8.88248 4.05865 8.34524 4.14753 7.77138ZM5.3475 12.5009C4.77365 12.4121 4.2364 12.8052 4.14753 13.3791C4.05865 13.9529 4.45181 14.4902 5.02566 14.579C5.8938 14.7135 6.81019 14.8926 7.73321 15.1255C8.29626 15.2675 8.86787 14.9262 9.00992 14.3632C9.15198 13.8001 8.81069 13.2285 8.24764 13.0865C7.25367 12.8357 6.27239 12.6442 5.3475 12.5009Z" fill="#F8F8F8"/>
</svg>
