<svg width="18" height="18" viewBox="0 0 18 18" fill="none" xmlns="http://www.w3.org/2000/svg">
<path fill-rule="evenodd" clip-rule="evenodd" d="M15.2922 2.69315C13.7442 1.14509 11.2343 1.14509 9.6862 2.69316L8.01952 4.35983C7.72663 4.65272 7.25175 4.65272 6.95886 4.35983C6.66597 4.06694 6.66597 3.59206 6.95886 3.29917L8.62554 1.6325C10.7594 -0.501358 14.2191 -0.50136 16.3529 1.63249C18.4868 3.76635 18.4868 7.22601 16.3529 9.35986L14.6862 11.0265C14.3933 11.3194 13.9185 11.3194 13.6256 11.0265C13.3327 10.7336 13.3327 10.2588 13.6256 9.96588L15.2922 8.2992C16.8403 6.75113 16.8403 4.24122 15.2922 2.69315ZM11.8076 6.1778C12.1005 6.4707 12.1005 6.94557 11.8076 7.23846L7.565 11.4811C7.2721 11.774 6.79723 11.774 6.50434 11.4811C6.21144 11.1882 6.21144 10.7133 6.50434 10.4204L10.747 6.1778C11.0399 5.88491 11.5147 5.88491 11.8076 6.1778ZM8.6255 14.9658C7.07743 16.5139 4.56752 16.5139 3.01945 14.9658C1.47138 13.4177 1.47138 10.9078 3.01945 9.35976L4.68613 7.69308C4.97902 7.40019 4.97902 6.92531 4.68613 6.63242C4.39323 6.33953 3.91836 6.33953 3.62547 6.63242L1.95879 8.2991C-0.175065 10.433 -0.175065 13.8926 1.95879 16.0265C4.09264 18.1603 7.5523 18.1603 9.68616 16.0265L11.3528 14.3598C11.6457 14.0669 11.6457 13.592 11.3528 13.2991C11.0599 13.0062 10.5851 13.0062 10.2922 13.2991L8.6255 14.9658Z" fill="#343444"/>
</svg>
