<svg width="83" height="83" viewBox="0 0 83 83" fill="none" xmlns="http://www.w3.org/2000/svg">
    <circle cx="41.5" cy="41.1564" r="29.0616" fill="#E2DDBC"/>
    <path d="M62.0497 20.6068C64.7483 23.3054 66.889 26.5092 68.3494 30.0351C69.8099 33.561 70.5616 37.3401 70.5616 41.1565C70.5616 44.9729 69.8099 48.752 68.3494 52.2779C66.889 55.8038 64.7483 59.0076 62.0497 61.7062C59.351 64.4048 56.1473 66.5455 52.6214 68.0059C49.0955 69.4664 45.3164 70.2181 41.5 70.2181C37.6836 70.2181 33.9045 69.4664 30.3786 68.0059C26.8527 66.5455 23.6489 64.4048 20.9503 61.7062L41.5 41.1565L62.0497 20.6068Z"
          fill="#C6C29C"/>
    <circle cx="26.3567" cy="32.7128" r="4.18276" fill="#D6D2B4"/>
    <path d="M22.4604 60.2362C21.8186 59.5943 21.3094 58.8323 20.9621 57.9937C20.6147 57.1551 20.4359 56.2562 20.4359 55.3485C20.4359 54.4408 20.6147 53.5419 20.9621 52.7033C21.3094 51.8647 21.8186 51.1027 22.4604 50.4608C23.1023 49.819 23.8643 49.3098 24.7029 48.9624C25.5416 48.6151 26.4404 48.4363 27.3481 48.4363C28.2559 48.4363 29.1547 48.6151 29.9933 48.9624C30.832 49.3098 31.594 49.819 32.2358 50.4608L27.3481 55.3485L22.4604 60.2362Z"
          fill="#CFCBAE"/>
    <path d="M32.2358 50.4608C32.8777 51.1027 33.3869 51.8647 33.7342 52.7033C34.0816 53.5419 34.2604 54.4408 34.2604 55.3485C34.2604 56.2562 34.0816 57.1551 33.7342 57.9937C33.3869 58.8323 32.8777 59.5943 32.2358 60.2362C31.594 60.8781 30.832 61.3872 29.9933 61.7346C29.1547 62.082 28.2559 62.2608 27.3481 62.2608C26.4404 62.2608 25.5416 62.082 24.7029 61.7346C23.8643 61.3872 23.1023 60.8781 22.4605 60.2362L27.3481 55.3485L32.2358 50.4608Z"
          fill="#B1AD8A"/>
    <path d="M33.5871 49.069C31.715 47.1968 30.2299 44.9743 29.2167 42.5283C28.2036 40.0822 27.6821 37.4606 27.6821 34.813C27.6821 32.1654 28.2036 29.5438 29.2167 27.0977C30.2299 24.6517 31.715 22.4291 33.5871 20.557C35.4592 18.6849 37.6817 17.1999 40.1278 16.1867C42.5738 15.1735 45.1955 14.652 47.8431 14.652C50.4906 14.652 53.1123 15.1735 55.5583 16.1867C58.0044 17.1999 60.2269 18.6849 62.099 20.557L47.8431 34.813L33.5871 49.069Z"
          fill="#F1EDCF"/>
    <path d="M27.7662 36.6522C27.7103 36.0418 27.6821 35.4281 27.6821 34.813C27.6821 32.8827 27.9593 30.9662 28.5022 29.1215C29.7226 29.8521 30.5396 31.187 30.5396 32.7129C30.5396 34.5284 29.3829 36.0738 27.7662 36.6522Z"
          fill="#DCD8BA"/>
    <path d="M33.5871 49.0688C35.4592 50.9409 37.6817 52.426 40.1277 53.4392C42.5738 54.4523 45.1954 54.9738 47.843 54.9738C50.4906 54.9738 53.1122 54.4523 55.5583 53.4392C58.0043 52.426 60.2269 50.9409 62.099 49.0688C63.9711 47.1967 65.4562 44.9741 66.4693 42.5281C67.4825 40.0821 68.004 37.4604 68.004 34.8128C68.004 32.1653 67.4825 29.5436 66.4693 27.0976C65.4561 24.6515 63.9711 22.429 62.099 20.5569L47.843 34.8128L33.5871 49.0688Z"
          fill="#E6E1C2"/>
    <circle cx="60.2836" cy="28.5302" r="2.90616" fill="#D0CCAF"/>
    <circle cx="55.7928" cy="36.6522" r="4.4908" fill="#D8D4B7"/>
    <circle cx="48.595" cy="55.3485" r="4.23884" fill="#B1AD8A"/>
    <path d="M52.7215 54.3747C52.2815 52.503 50.601 51.1096 48.595 51.1096C46.4817 51.1096 44.7296 52.6562 44.4087 54.6792C45.5403 54.8749 46.6892 54.9739 47.843 54.9739C49.4913 54.9739 51.1294 54.7717 52.7215 54.3747Z"
          fill="#BFBA9A"/>
    <circle cx="45.9908" cy="23.6181" r="4.4908" fill="#FAF8EC"/>
    <circle cx="37.698" cy="29.7313" r="2.98152" fill="#F8F4E0"/>
</svg>
