<svg width="83" height="83" viewBox="0 0 83 83" fill="none" xmlns="http://www.w3.org/2000/svg">
    <circle cx="41.5" cy="41.1701" r="29.052" fill="#5142FC"/>
    <path d="M62.0429 20.6274C64.7406 23.3251 66.8806 26.5278 68.3406 30.0525C69.8006 33.5773 70.552 37.3551 70.552 41.1702C70.552 44.9854 69.8006 48.7632 68.3406 52.2879C66.8806 55.8127 64.7406 59.0154 62.0429 61.7131C59.3452 64.4108 56.1425 66.5508 52.6178 68.0108C49.093 69.4708 45.3152 70.2222 41.5 70.2222C37.6849 70.2222 33.9071 69.4708 30.3823 68.0108C26.8576 66.5508 23.6549 64.4108 20.9572 61.7131L41.5 41.1702L62.0429 20.6274Z"
          fill="#4B40CA"/>
    <circle cx="26.3618" cy="32.7293" r="4.18138" fill="#6C60FF"/>
    <path d="M22.4668 60.2437C21.8251 59.6021 21.3161 58.8403 20.9689 58.002C20.6216 57.1636 20.4429 56.2651 20.4429 55.3577C20.4429 54.4502 20.6216 53.5517 20.9689 52.7133C21.3161 51.875 21.8251 51.1132 22.4668 50.4716C23.1084 49.8299 23.8702 49.321 24.7085 48.9737C25.5469 48.6264 26.4454 48.4477 27.3528 48.4477C28.2603 48.4477 29.1588 48.6264 29.9972 48.9737C30.8355 49.321 31.5973 49.8299 32.2389 50.4716L27.3528 55.3577L22.4668 60.2437Z"
          fill="#6C60FF"/>
    <path d="M32.2389 50.4716C32.8806 51.1132 33.3896 51.875 33.7368 52.7133C34.0841 53.5517 34.2628 54.4502 34.2628 55.3577C34.2628 56.2651 34.0841 57.1636 33.7368 58.002C33.3896 58.8403 32.8806 59.6021 32.2389 60.2437C31.5973 60.8854 30.8355 61.3944 29.9972 61.7416C29.1588 62.0889 28.2603 62.2676 27.3528 62.2676C26.4454 62.2676 25.5469 62.0889 24.7085 61.7416C23.8702 61.3944 23.1084 60.8854 22.4668 60.2437L27.3528 55.3577L32.2389 50.4716Z"
          fill="#3B329B"/>
    <path d="M33.5897 49.0801C31.7182 47.2086 30.2336 44.9868 29.2208 42.5415C28.2079 40.0963 27.6866 37.4755 27.6866 34.8288C27.6866 32.1821 28.2079 29.5613 29.2208 27.1161C30.2336 24.6709 31.7182 22.4491 33.5897 20.5776C35.4612 18.7061 37.683 17.2215 40.1282 16.2087C42.5734 15.1958 45.1942 14.6745 47.8409 14.6745C50.4876 14.6745 53.1084 15.1958 55.5536 16.2087C57.9989 17.2215 60.2206 18.7061 62.0921 20.5776L47.8409 34.8288L33.5897 49.0801Z"
          fill="#9389FF"/>
    <path d="M27.7707 36.6673C27.7148 36.0571 27.6866 35.4436 27.6866 34.8287C27.6866 32.899 27.9637 30.9832 28.5064 29.139C29.7264 29.8694 30.5431 31.2039 30.5431 32.7293C30.5431 34.5442 29.3868 36.0891 27.7707 36.6673Z"
          fill="#AFA8FF"/>
    <path d="M33.5897 49.0801C35.4612 50.9516 37.683 52.4362 40.1282 53.449C42.5735 54.4619 45.1942 54.9832 47.8409 54.9832C50.4876 54.9832 53.1084 54.4619 55.5537 53.449C57.9989 52.4362 60.2207 50.9516 62.0922 49.0801C63.9637 47.2086 65.4482 44.9868 66.4611 42.5416C67.4739 40.0963 67.9952 37.4756 67.9952 34.8289C67.9952 32.1822 67.4739 29.5614 66.4611 27.1161C65.4482 24.6709 63.9637 22.4491 62.0922 20.5776L47.8409 34.8289L33.5897 49.0801Z"
          fill="#574FB7"/>
    <circle cx="60.2774" cy="28.548" r="2.9052" fill="#534D9D"/>
    <circle cx="55.7881" cy="36.6674" r="4.48931" fill="#534D9D"/>
    <circle cx="48.5927" cy="55.3576" r="4.23744" fill="#3B329B"/>
    <path d="M52.7177 54.3842C52.2779 52.5131 50.5979 51.1202 48.5926 51.1202C46.48 51.1202 44.7285 52.6662 44.4077 54.6886C45.5389 54.8842 46.6875 54.9831 47.8409 54.9831C49.4886 54.9831 51.1262 54.7811 52.7177 54.3842Z"
          fill="#4D4891"/>
    <circle cx="45.9893" cy="23.6376" r="4.48931" fill="#D4D0FF"/>
    <circle cx="37.6992" cy="29.7488" r="2.98053" fill="#D4D0FF"/>
</svg>
