<svg width="83" height="83" viewBox="0 0 83 83" fill="none" xmlns="http://www.w3.org/2000/svg">
    <circle cx="41.5" cy="41.4455" r="28.8572" fill="#F99300"/>
    <path d="M61.9051 21.0404C64.5848 23.7201 66.7104 26.9013 68.1606 30.4024C69.6108 33.9035 70.3572 37.656 70.3572 41.4456C70.3572 45.2351 69.6108 48.9876 68.1606 52.4887C66.7104 55.9899 64.5848 59.1711 61.9051 61.8507C59.2255 64.5303 56.0443 66.6559 52.5432 68.1062C49.042 69.5564 45.2896 70.3028 41.5 70.3028C37.7104 70.3028 33.9579 69.5564 30.4568 68.1062C26.9557 66.6559 23.7745 64.5303 21.0948 61.8507L41.5 41.4456L61.9051 21.0404Z"
          fill="#C74011"/>
    <circle cx="21.1535" cy="44.0189" r="4.15334" fill="#C74011"/>
    <path d="M33.6428 49.3024C31.7838 47.4435 30.3092 45.2366 29.3032 42.8077C28.2971 40.3789 27.7793 37.7757 27.7793 35.1467C27.7793 32.5178 28.2971 29.9146 29.3032 27.4857C30.3092 25.0569 31.7838 22.85 33.6428 20.991C35.5017 19.1321 37.7086 17.6575 40.1375 16.6514C42.5663 15.6454 45.1695 15.1276 47.7985 15.1276C50.4274 15.1276 53.0306 15.6454 55.4595 16.6514C57.8883 17.6575 60.0952 19.1321 61.9542 20.991L47.7985 35.1467L33.6428 49.3024Z"
          fill="#FFD13E"/>
    <path d="M33.6428 49.3025C35.5017 51.1615 37.7086 52.6361 40.1375 53.6421C42.5663 54.6482 45.1695 55.166 47.7985 55.166C50.4274 55.166 53.0306 54.6482 55.4595 53.6421C57.8883 52.6361 60.0952 51.1615 61.9542 49.3025C63.8131 47.4436 65.2877 45.2367 66.2938 42.8078C67.2998 40.379 67.8176 37.7758 67.8176 35.1468C67.8176 32.5179 67.2998 29.9147 66.2938 27.4858C65.2877 25.057 63.8131 22.8501 61.9542 20.9911L47.7985 35.1468L33.6428 49.3025Z"
          fill="#F99300"/>
    <circle cx="48.5451" cy="55.5376" r="4.20903" fill="#9B3410"/>
    <rect x="22.4091" y="27.5992" width="18.2762" height="4.23239" rx="2.1162" fill="#FFD13E"/>
    <path d="M52.6425 54.5708C52.2056 52.7122 50.5369 51.3286 48.545 51.3286C46.4466 51.3286 44.7068 52.8643 44.3882 54.8731C45.5118 55.0674 46.6527 55.1657 47.7984 55.1657C49.435 55.1657 51.0617 54.965 52.6425 54.5708Z"
          fill="#C97C0E"/>
    <circle cx="43.4664" cy="27.5991" r="4.33201" fill="white"/>
    <circle cx="37.7247" cy="36.9054" r="2.96055" fill="white"/>
    <rect x="21.1534" y="55.538" width="18.2762" height="4.23239" rx="2.1162" fill="#FFD13E"/>
    <rect x="50.4185" y="41.903" width="18.2762" height="4.23239" rx="2.1162" fill="#FFD13E"/>
</svg>
